<mxfile host="app.diagrams.net" agent="Mozilla/5.0 (Windows NT 10.0; Win64; x64) AppleWebKit/537.36 (KHTML, like Gecko) Chrome/122.0.6261.95 Safari/537.36" version="26.0.14">
  <diagram name="Page-1" id="74b105a0-9070-1c63-61bc-23e55f88626e">
    <mxGraphModel dx="1386" dy="1974" grid="1" gridSize="10" guides="1" tooltips="1" connect="1" arrows="1" fold="1" page="1" pageScale="1.5" pageWidth="1169" pageHeight="826" background="none" math="0" shadow="0">
      <root>
        <mxCell id="0" style=";html=1;" />
        <mxCell id="1" style=";html=1;" parent="0" />
        <mxCell id="U9MWDXr_XhZEX7kHSUSE-5" value="" style="rounded=1;whiteSpace=wrap;html=1;fillColor=#eeeeee;strokeColor=#36393d;" parent="1" vertex="1">
          <mxGeometry x="41" y="-100.32" width="1130" height="160.32" as="geometry" />
        </mxCell>
        <mxCell id="U9MWDXr_XhZEX7kHSUSE-6" value="" style="rounded=1;whiteSpace=wrap;html=1;arcSize=3;fillColor=#eeeeee;strokeColor=#36393d;" parent="1" vertex="1">
          <mxGeometry x="40" y="80" width="1130" height="640" as="geometry" />
        </mxCell>
        <mxCell id="FM6sfxU-iBhexmtikb-X-1" value="" style="rounded=1;whiteSpace=wrap;html=1;fillColor=#f5f5f5;fontColor=#333333;strokeColor=#666666;" parent="1" vertex="1">
          <mxGeometry x="64" y="530" width="490" height="140" as="geometry" />
        </mxCell>
        <mxCell id="Oe-iTw4aLNt5PTQuv37J-18" style="edgeStyle=orthogonalEdgeStyle;rounded=0;orthogonalLoop=1;jettySize=auto;html=1;exitX=1;exitY=0.5;exitDx=0;exitDy=0;entryX=0;entryY=0.5;entryDx=0;entryDy=0;" parent="1" source="Oe-iTw4aLNt5PTQuv37J-2" target="Oe-iTw4aLNt5PTQuv37J-16" edge="1">
          <mxGeometry relative="1" as="geometry" />
        </mxCell>
        <mxCell id="Oe-iTw4aLNt5PTQuv37J-2" value="&lt;font style=&quot;font-size: 28px;&quot;&gt;Rerank (AI Searcher)&lt;/font&gt;&lt;div&gt;&lt;font color=&quot;#990000&quot; style=&quot;font-size: 14px;&quot;&gt;&lt;b style=&quot;&quot;&gt;( 原Query +5拆词 并行调用 )&lt;/b&gt;&lt;/font&gt;&lt;/div&gt;" style="rounded=1;whiteSpace=wrap;html=1;fillColor=#b0e3e6;strokeColor=#0e8088;" parent="1" vertex="1">
          <mxGeometry x="231" y="170.5" width="434" height="60" as="geometry" />
        </mxCell>
        <mxCell id="Oe-iTw4aLNt5PTQuv37J-3" value="" style="rounded=1;whiteSpace=wrap;html=1;fillColor=#f5f5f5;fontColor=#333333;strokeColor=#666666;" parent="1" vertex="1">
          <mxGeometry x="60" y="300" width="780" height="130" as="geometry" />
        </mxCell>
        <mxCell id="Oe-iTw4aLNt5PTQuv37J-4" value="&lt;font style=&quot;font-size: 28px;&quot;&gt;大搜、新闻、Box&lt;/font&gt;" style="rounded=1;whiteSpace=wrap;html=1;fillColor=#d0cee2;strokeColor=#56517e;" parent="1" vertex="1">
          <mxGeometry x="74" y="355" width="296" height="60" as="geometry" />
        </mxCell>
        <mxCell id="Oe-iTw4aLNt5PTQuv37J-5" value="&lt;font style=&quot;font-size: 28px;&quot;&gt;新闻&lt;/font&gt;" style="rounded=1;whiteSpace=wrap;html=1;fillColor=#dae8fc;strokeColor=#6c8ebf;" parent="1" vertex="1">
          <mxGeometry x="214" y="570" width="80" height="40" as="geometry" />
        </mxCell>
        <mxCell id="Oe-iTw4aLNt5PTQuv37J-7" value="&lt;span style=&quot;font-size: 28px;&quot;&gt;……&lt;/span&gt;" style="rounded=1;whiteSpace=wrap;html=1;fillColor=#008a00;strokeColor=#005700;fontColor=#ffffff;" parent="1" vertex="1">
          <mxGeometry x="524" y="355" width="110" height="60" as="geometry" />
        </mxCell>
        <mxCell id="Oe-iTw4aLNt5PTQuv37J-8" value="&lt;font style=&quot;font-size: 28px;&quot;&gt;精品库引擎&lt;/font&gt;" style="rounded=1;whiteSpace=wrap;html=1;fillColor=#a20025;strokeColor=#6F0000;fontColor=#ffffff;" parent="1" vertex="1">
          <mxGeometry x="660" y="355" width="170" height="60" as="geometry" />
        </mxCell>
        <mxCell id="Oe-iTw4aLNt5PTQuv37J-10" value="&lt;font style=&quot;font-size: 22px;&quot;&gt;多内容源，统一rerank&lt;/font&gt;" style="text;html=1;align=center;verticalAlign=middle;whiteSpace=wrap;rounded=0;" parent="1" vertex="1">
          <mxGeometry x="235" y="312" width="240" height="30" as="geometry" />
        </mxCell>
        <mxCell id="Oe-iTw4aLNt5PTQuv37J-16" value="&lt;font style=&quot;font-size: 28px;&quot;&gt;BGE模型&lt;/font&gt;" style="rounded=1;whiteSpace=wrap;html=1;fillColor=#f8cecc;strokeColor=#b85450;" parent="1" vertex="1">
          <mxGeometry x="917" y="171" width="243" height="60" as="geometry" />
        </mxCell>
        <mxCell id="Oe-iTw4aLNt5PTQuv37J-17" value="" style="endArrow=classic;html=1;rounded=0;exitX=1;exitY=0.5;exitDx=0;exitDy=0;entryX=0;entryY=0.5;entryDx=0;entryDy=0;" parent="1" target="Oe-iTw4aLNt5PTQuv37J-19" edge="1">
          <mxGeometry width="50" height="50" relative="1" as="geometry">
            <mxPoint x="830" y="386" as="sourcePoint" />
            <mxPoint x="910" y="386" as="targetPoint" />
          </mxGeometry>
        </mxCell>
        <mxCell id="Oe-iTw4aLNt5PTQuv37J-19" value="&lt;span style=&quot;font-size: 28px;&quot;&gt;Embedding模型&lt;/span&gt;" style="rounded=1;whiteSpace=wrap;html=1;fillColor=#dae8fc;strokeColor=#6c8ebf;" parent="1" vertex="1">
          <mxGeometry x="920" y="267" width="240" height="58" as="geometry" />
        </mxCell>
        <mxCell id="Oe-iTw4aLNt5PTQuv37J-20" value="" style="endArrow=classic;html=1;rounded=0;exitX=1;exitY=0.5;exitDx=0;exitDy=0;entryX=0;entryY=0.5;entryDx=0;entryDy=0;" parent="1" source="Oe-iTw4aLNt5PTQuv37J-8" target="Oe-iTw4aLNt5PTQuv37J-21" edge="1">
          <mxGeometry width="50" height="50" relative="1" as="geometry">
            <mxPoint x="830" y="511" as="sourcePoint" />
            <mxPoint x="910" y="511" as="targetPoint" />
          </mxGeometry>
        </mxCell>
        <mxCell id="Oe-iTw4aLNt5PTQuv37J-21" value="&lt;span style=&quot;font-size: 28px;&quot;&gt;Bert-qs模型&lt;/span&gt;" style="rounded=1;whiteSpace=wrap;html=1;fillColor=#d5e8d4;strokeColor=#82b366;" parent="1" vertex="1">
          <mxGeometry x="918.5" y="390" width="240" height="50" as="geometry" />
        </mxCell>
        <mxCell id="Oe-iTw4aLNt5PTQuv37J-22" value="" style="rounded=1;whiteSpace=wrap;html=1;fillColor=#f5f5f5;fontColor=#333333;strokeColor=#666666;" parent="1" vertex="1">
          <mxGeometry x="572" y="530" width="360" height="140" as="geometry" />
        </mxCell>
        <mxCell id="Oe-iTw4aLNt5PTQuv37J-23" value="&lt;font style=&quot;font-size: 28px;&quot;&gt;全量数据&lt;/font&gt;&lt;div style=&quot;font-size: 18px;&quot;&gt;&lt;font style=&quot;font-size: 18px;&quot;&gt;3000分片，22亿(110亿段)&lt;/font&gt;&lt;/div&gt;" style="rounded=1;whiteSpace=wrap;html=1;fillColor=#f5f5f5;strokeColor=#666666;gradientColor=#b3b3b3;" parent="1" vertex="1">
          <mxGeometry x="582" y="570" width="150" height="85" as="geometry" />
        </mxCell>
        <mxCell id="Oe-iTw4aLNt5PTQuv37J-27" value="&lt;font style=&quot;font-size: 28px;&quot;&gt;时效性数据&lt;/font&gt;&lt;div style=&quot;font-size: 18px;&quot;&gt;&lt;font style=&quot;font-size: 18px;&quot;&gt;32分片，700万(7000万段)&lt;/font&gt;&lt;/div&gt;" style="rounded=1;whiteSpace=wrap;html=1;fillColor=#f5f5f5;strokeColor=#666666;gradientColor=#b3b3b3;" parent="1" vertex="1">
          <mxGeometry x="742" y="570" width="160" height="85" as="geometry" />
        </mxCell>
        <mxCell id="Oe-iTw4aLNt5PTQuv37J-29" value="&lt;font style=&quot;font-size: 22px;&quot;&gt;数据量&lt;/font&gt;" style="text;html=1;align=center;verticalAlign=middle;whiteSpace=wrap;rounded=0;" parent="1" vertex="1">
          <mxGeometry x="578" y="532" width="90" height="30" as="geometry" />
        </mxCell>
        <mxCell id="Oe-iTw4aLNt5PTQuv37J-30" value="" style="endArrow=none;html=1;rounded=0;entryX=0.048;entryY=0.002;entryDx=0;entryDy=0;entryPerimeter=0;exitX=0;exitY=1;exitDx=0;exitDy=0;" parent="1" source="Oe-iTw4aLNt5PTQuv37J-8" target="Oe-iTw4aLNt5PTQuv37J-22" edge="1">
          <mxGeometry width="50" height="50" relative="1" as="geometry">
            <mxPoint x="755" y="420" as="sourcePoint" />
            <mxPoint x="260" y="490" as="targetPoint" />
          </mxGeometry>
        </mxCell>
        <mxCell id="Oe-iTw4aLNt5PTQuv37J-31" value="" style="endArrow=none;html=1;rounded=0;entryX=0.952;entryY=0.004;entryDx=0;entryDy=0;entryPerimeter=0;exitX=1;exitY=1;exitDx=0;exitDy=0;" parent="1" source="Oe-iTw4aLNt5PTQuv37J-8" target="Oe-iTw4aLNt5PTQuv37J-22" edge="1">
          <mxGeometry width="50" height="50" relative="1" as="geometry">
            <mxPoint x="930" y="370" as="sourcePoint" />
            <mxPoint x="980" y="320" as="targetPoint" />
          </mxGeometry>
        </mxCell>
        <mxCell id="FM6sfxU-iBhexmtikb-X-2" value="&lt;font style=&quot;font-size: 22px;&quot;&gt;数据来源&lt;/font&gt;" style="text;html=1;align=center;verticalAlign=middle;whiteSpace=wrap;rounded=0;" parent="1" vertex="1">
          <mxGeometry x="70" y="532" width="90" height="30" as="geometry" />
        </mxCell>
        <mxCell id="FM6sfxU-iBhexmtikb-X-3" value="&lt;font style=&quot;font-size: 28px;&quot;&gt;自然结果&lt;/font&gt;" style="rounded=1;whiteSpace=wrap;html=1;fillColor=#f5f5f5;fontColor=#333333;strokeColor=#666666;" parent="1" vertex="1">
          <mxGeometry x="74" y="570" width="130" height="40" as="geometry" />
        </mxCell>
        <mxCell id="FM6sfxU-iBhexmtikb-X-4" value="&lt;font style=&quot;font-size: 28px;&quot;&gt;百科&lt;/font&gt;" style="rounded=1;whiteSpace=wrap;html=1;fillColor=#ffe6cc;strokeColor=#d79b00;" parent="1" vertex="1">
          <mxGeometry x="304" y="570" width="80" height="40" as="geometry" />
        </mxCell>
        <mxCell id="FM6sfxU-iBhexmtikb-X-6" value="&lt;font style=&quot;font-size: 28px;&quot;&gt;精选摘要&lt;/font&gt;" style="rounded=1;whiteSpace=wrap;html=1;fillColor=#ffe6cc;strokeColor=#d79b00;" parent="1" vertex="1">
          <mxGeometry x="394" y="570" width="130" height="40" as="geometry" />
        </mxCell>
        <mxCell id="FM6sfxU-iBhexmtikb-X-7" value="&lt;font style=&quot;font-size: 28px;&quot;&gt;天气&lt;/font&gt;" style="rounded=1;whiteSpace=wrap;html=1;fillColor=#f8cecc;strokeColor=#b85450;" parent="1" vertex="1">
          <mxGeometry x="75" y="620" width="80" height="40" as="geometry" />
        </mxCell>
        <mxCell id="FM6sfxU-iBhexmtikb-X-9" value="&lt;font style=&quot;font-size: 28px;&quot;&gt;股票&lt;/font&gt;" style="rounded=1;whiteSpace=wrap;html=1;fillColor=#b0e3e6;strokeColor=#0e8088;" parent="1" vertex="1">
          <mxGeometry x="261" y="620" width="80" height="40" as="geometry" />
        </mxCell>
        <mxCell id="FM6sfxU-iBhexmtikb-X-10" value="&lt;font style=&quot;font-size: 28px;&quot;&gt;图片&lt;/font&gt;" style="rounded=1;whiteSpace=wrap;html=1;fillColor=#b0e3e6;strokeColor=#0e8088;" parent="1" vertex="1">
          <mxGeometry x="165" y="620" width="85" height="40" as="geometry" />
        </mxCell>
        <mxCell id="FM6sfxU-iBhexmtikb-X-12" value="&lt;span style=&quot;font-size: 28px;&quot;&gt;美食&lt;/span&gt;" style="rounded=1;whiteSpace=wrap;html=1;fillColor=#b0e3e6;strokeColor=#0e8088;" parent="1" vertex="1">
          <mxGeometry x="352" y="620" width="80" height="40" as="geometry" />
        </mxCell>
        <mxCell id="FM6sfxU-iBhexmtikb-X-15" value="" style="endArrow=none;html=1;rounded=0;entryX=0.039;entryY=0.99;entryDx=0;entryDy=0;entryPerimeter=0;" parent="1" target="Oe-iTw4aLNt5PTQuv37J-4" edge="1">
          <mxGeometry width="50" height="50" relative="1" as="geometry">
            <mxPoint x="84" y="530" as="sourcePoint" />
            <mxPoint x="84" y="420" as="targetPoint" />
          </mxGeometry>
        </mxCell>
        <mxCell id="FM6sfxU-iBhexmtikb-X-17" value="" style="endArrow=none;html=1;rounded=0;exitX=0.966;exitY=0.004;exitDx=0;exitDy=0;exitPerimeter=0;entryX=0.949;entryY=0.958;entryDx=0;entryDy=0;entryPerimeter=0;" parent="1" edge="1">
          <mxGeometry width="50" height="50" relative="1" as="geometry">
            <mxPoint x="537.3400000000001" y="531.5600000000004" as="sourcePoint" />
            <mxPoint x="354.904" y="413.4800000000005" as="targetPoint" />
          </mxGeometry>
        </mxCell>
        <mxCell id="FM6sfxU-iBhexmtikb-X-18" value="&lt;span style=&quot;font-size: 28px;&quot;&gt;……&lt;/span&gt;" style="rounded=1;whiteSpace=wrap;html=1;fillColor=#d0cee2;strokeColor=#56517e;" parent="1" vertex="1">
          <mxGeometry x="444" y="620" width="80" height="40" as="geometry" />
        </mxCell>
        <mxCell id="FM6sfxU-iBhexmtikb-X-19" value="&lt;div&gt;&lt;br&gt;&lt;/div&gt;&lt;div&gt;&lt;br&gt;&lt;/div&gt;&lt;div&gt;&lt;br&gt;&lt;/div&gt;&lt;div&gt;&lt;font style=&quot;font-size: 20px;&quot;&gt;SaaS化，ToB&lt;/font&gt;&lt;/div&gt;" style="rounded=1;whiteSpace=wrap;html=1;fillColor=#cce5ff;strokeColor=#36393d;" parent="1" vertex="1">
          <mxGeometry x="455" y="-34.5" width="189" height="80" as="geometry" />
        </mxCell>
        <mxCell id="FM6sfxU-iBhexmtikb-X-48" value="" style="endArrow=classic;html=1;rounded=0;entryX=0.497;entryY=-0.013;entryDx=0;entryDy=0;exitX=0.5;exitY=1;exitDx=0;exitDy=0;entryPerimeter=0;" parent="1" source="Oe-iTw4aLNt5PTQuv37J-2" target="Oe-iTw4aLNt5PTQuv37J-3" edge="1">
          <mxGeometry width="50" height="50" relative="1" as="geometry">
            <mxPoint x="533.86" y="230" as="sourcePoint" />
            <mxPoint x="533.86" y="270" as="targetPoint" />
          </mxGeometry>
        </mxCell>
        <mxCell id="U9MWDXr_XhZEX7kHSUSE-2" value="&lt;font style=&quot;font-size: 28px;&quot;&gt;Bing&lt;/font&gt;" style="rounded=1;whiteSpace=wrap;html=1;fillColor=#e1d5e7;strokeColor=#9673a6;" parent="1" vertex="1">
          <mxGeometry x="391" y="355" width="110" height="60" as="geometry" />
        </mxCell>
        <mxCell id="U9MWDXr_XhZEX7kHSUSE-3" value="" style="endArrow=classic;html=1;rounded=0;exitX=1;exitY=0.5;exitDx=0;exitDy=0;entryX=0;entryY=0.5;entryDx=0;entryDy=0;" parent="1" source="Oe-iTw4aLNt5PTQuv37J-8" target="U9MWDXr_XhZEX7kHSUSE-4" edge="1">
          <mxGeometry width="50" height="50" relative="1" as="geometry">
            <mxPoint x="830" y="312" as="sourcePoint" />
            <mxPoint x="910" y="438" as="targetPoint" />
          </mxGeometry>
        </mxCell>
        <mxCell id="U9MWDXr_XhZEX7kHSUSE-4" value="&lt;span style=&quot;font-size: 28px;&quot;&gt;Bert-qt模型&lt;/span&gt;" style="rounded=1;whiteSpace=wrap;html=1;fillColor=#d5e8d4;strokeColor=#82b366;" parent="1" vertex="1">
          <mxGeometry x="918.5" y="331" width="240" height="53" as="geometry" />
        </mxCell>
        <mxCell id="U9MWDXr_XhZEX7kHSUSE-8" value="&lt;font style=&quot;font-size: 40px;&quot;&gt;&lt;b&gt;AI时代战略基座 - AISO&lt;/b&gt;&lt;/font&gt;" style="text;html=1;align=left;verticalAlign=middle;whiteSpace=wrap;rounded=0;" parent="1" vertex="1">
          <mxGeometry x="60" y="90" width="540" height="50" as="geometry" />
        </mxCell>
        <mxCell id="U9MWDXr_XhZEX7kHSUSE-9" value="" style="shape=image;verticalLabelPosition=bottom;labelBackgroundColor=default;verticalAlign=top;aspect=fixed;imageAspect=0;image=data:image/png,iVBORw0KGgoAAAANSUhEUgAAAjwAAAB2CAYAAAG7VHkvAAAAAXNSR0IArs4c6QAAAARnQU1BAACxjwv8YQUAAAAJcEhZcwAAFxEAABcRAcom8z8AAGleSURBVHhe7X0JmBXFuXZpEhNNYqJJbnZNDGYhcWOWnnMYnCTq1STeLCbc5N7kv9kEBVlEUBCXUQEBUUFAAQHZZBUVQQFFBQQ33AUEwQ2QfVFkmzndXed/35qqoU+fPuucMwv0+zzv9Jyuvbrqq6+rq74SeWOHvEH/d5Tg+nhc3OLExQo3pu8cxpPxf4jlEm4g8S78kkcNuttx0QfcJm/TdxIx142LhaicxbqCjjqwgnqDBsNrfixGxb+n/p/g7BMPobXMRiXNA486dLCXqQq6C92LuAmtpB/+HwwO1fcMZvi6FVvUK3X3rIqKWjAexIpIJKlig/wZai8KQe7++Pzu0bZt4+UVFV3897V3BfO7oqLiaa874za/6+51QOWwgu7QldED//fB/zeC/X0V5MUjriseRYtaklkWIdE3TAYInfgQ/TMl6K+8vPx3+mc9TCHU/9FoD1RGD8uyhoBb9f+dvekZtG3XLl5VVfVlnb4iKmgxwjwGjqEfxs3/ybo4Lq/9Wb0MIi63Xxdd8X9PsLd9i7pncLf8rrgHlTYu966mEo5EfoNEX+P/+nZKRKLReLllval/JqEu80KUlJScgkq8whQYYXaXWdYk4+4FK0j/621BrKAeuLZVv5E3/k8ejsNU0IcyUnfDh2s9Lek2/H+n/Rv9KwFtKyvjqcjEkOhfcX2b/wf5IXVUJqN99c8kHM588v8kwk8w/xtqLwrmN1rbXL8/L5Xn+gqqTtGl+mQ3pCOxWSmJxDwVJIP84OkvMZnKpYIoc/g7HU2rRRf7gvc+Ws8d3t9+qgQUWEHUgzZnVxm5Qhf4f5GhtxITToRxo39U2AJ1MwDeOFRhLOt7aelL0/yGm3ooyNeDygGIRqM/YvqJYYyieDv4dmErqTQSOcebGP+vrq4+Vv9MgMffsYkZPAzKJ398qMxX0tEfV9BvLyHXfqGdPDAVNAp8NoMgdhIrEZGmHOZJ7a0eQX40X9deRFlZWSTAPWmYN087HU0YM4qh0tarsBDS7KL83wu0qHX0p396MBQFZwVNQgU9AC4MaE27oP8cKmwra1kYJUfVV9B8cCn4EirlLXADyAoKAcx2tgZWUIgM2HG0dS++VtwKBmEpWszz4Dr5WfWbI9wGWar+P+LB1wlWTiqwey1C5aw42lpMZ1QMK2ebO0jfEWK4PVT/J8QUVMzDqJSHcT3q0ElXjsFNuntR/xmepkKeRYUtOyygvTqGn9AxJmpvCtBBNgX5M9TeUuoz2lkhlbv/HpVJFQDw6jl+f9CD6qdFEiunh2wlrkGl9AVZSX5M8FTWI/h/QXajl05sK//3a7ypQD9+5Y9A5i/yhudbN8l75n/e91YGYcLw6uFeXhGmfiqD2jL/r0vbVM5H7ocqFnazK0FWkh8jcG9Mft2LCXuvmZDOH9+TTMXh/26qUJZl88opDd5PVTmEv+WgwuunMdq0afNN/l8X/go8fVaOd9rCi2tQGddrt4G4msmzAARNURiazPEa5E6igK+qiABvYfxA5v9QXznwB7r8H0+9nTcdL72tMF238rLOByuHo9VGp2fdDQ862b8Q3Z3L9K/DWCu/r/+rB55i0hSF5kyTmEo42I+a8jAZP5y5ZHgrh1BxZqD26verulUq1oXoiYph5bBlZIt4bsO6SexwosHIxh8q515Py9mIFvMnVG7wFAYId8qkjSowkNStEFfrqqov6Fu8dyAxfVM5/gn4VMihcpiQt0V4n7oXcFttMsWrX24YaD/H6P83oju+BgZOX2iupz/6J7yVQ6ACxzJOL7WTB6yc4eA4cFm8Ut9Nxq17v+KvHH/kXvoLycwF+SO1FwVWYpCf0kgkqr0oBPnxU3ut96t/qt8Yne7TPxVQWWcGP0BTOdMgiPlda078fO1Sh1vtT8ReVIyUX9R3jjKYyqEuswh8DiPa6+B6cAvIyjnqEVQ5B472iqm2fy0GoxIGomLUawQ4Cb9nOtvFdOcJMcv9QMx1umnfh/GcPFmscLeKl9239Z3D2Ijw74ObSHmWvhviiEBXeaLSB/n1hiM7uV1eqF0zYxEaBWc2ngafAbna5VXc82Klu0+85T6rf4U4ItBVHlLfRU3jWeV76Jkw292jFrZw5oergDhFxpVAT+hX2hBHKC6V31HzF6bxXA/6weGLi3w4hPE9g7Nh96KBjcZ1fEBD4yqpB+GWDs/LkeIVeav+dVQDqrla9ZDqvalQMK8o+mc98NJ6RiQS+ZmXvE+/fGUoKyv7it+9srT0tLoFT97Gcy8ah0FP+Xm1+Ok6kMMYZwq5CIpTqmxMQ3zrfbyY4Fwp7neH6V+JWICG9Tgk01Pg0sTGh4pUE1n50v+CaRDkN1v637lQmWcH+cuG5eXlFTqaegT589M0LPOb5QyieTfFi/ce+q+srDwJv2OaJj5+1o+hHKVoOIv1vV0I8yGJ/18yaZmy4/9NHncVDxvPMwmNh6vldsgqBlDgwjC6XQVeDXobUyZQMo0F73Mnq98PoKHMqP2n+v8heYuYK5OV7gYABRt+uGB1QGM83dzzTuHkC6Txpj+NbGEeLPiyvlU/xZ4N6Z/XTBKKfrwL39q1afNNNJRvsHHRDQ3qa/wNCfIfnsYTmBbzDD9JSzNJFXlC46HO8w4kghcd7cGiEx48p+N74Nq95hLtUofB8oui2vlY3CLP0XdwL/aUmoHmMMep+lGumvktNir0w0CB/8rf+F8tzMNDd5SHBsI0AMSfco1aKiDMH1RY3Zu94H1NM0P+C3PPSBWvP3PPT5M/lPcg/XtBd7rpnwqm8dDNP8tv0kp1vy6GTjVTExoPpcquxOEkLSiteoG9A6RRf3uiGILhL0eYDOZLf+NpCBFN/XK1YjWeYoHDFtMz+Tbpk2WWNVh7C0T2ee3ubEloPHWbTopTyM3uLv1fwVFIydOxpOQzDEvqW0VpPBha1Zpr45YvTRzlkUgvHXUC0kmeXNI2/nUUGlfFrktoPPxQwfXcnNwrJHL8HJYtIOq/7y8YxvVocGGzgz8sKnsPf7MS9a2s4dFvPta3FPB7o75fKNZ/ofIiqPGIqqpPp9K7OEQFuelGpJTqZHAPjmk8Zob5bvCtAjz02+zN6RoPGsB3TAvPlv6C6ajqgQd+vNeP8ZeOCf4jkbk6KgWI+3EJ7jmwvKIi6Q0UUnEN3XS6Ml+afCONZTpq87Zl/Ch37aQAKfU/SeWto0Q5r0PelptG5yXD6ChSwNt4uJCZH7y4VncmuCzHhkS9h58ouNjZjif0PC9KS0tPaxON/iAXRqPRb+ngWYHzFmhQJ6cj/WjvGREU3kvtLSOyyVc6psoz3FqxnvTPBFRVVX1V/1skjMED9zYefjHlYm9+GORs8pMg525mwR9fx3mdAE4GzZdULgJXn5rBEEcpprj7khoPvyxzQTy/LnNRPL8wc2E8Gw4Xx9c3HvlDHUuIEMDj8j/EE+4CsdSxExuP64h17nxRHQ/clRUiRPbYLC/Nae4oRAtFtfOqGIgHzdd0zhAPA+fi9wz3OTHDeUrMc1aJJ2SykrpCDhQvuZshebrqO3VYI78o3kP4DeC2sAEdmbjGfqV+q8QA8C6lqyR9yAvEC2gUXMfzLPgihy1PI3kdQ9ta3FunG1CIIwxXQeG9xj68zyaXXeoLnPaQRHjrApeA3KBE/SceV8uvFVZCL1rlHMS9T+k7IY4IdKl9QX2fMo2HC7lywWPyI2WPhhu32Ii41IKNaIn8ifYR4ohFFzQa03j4cXOnDLALkQaz0HAeAvnqrhoRyEYU4ghHx9jLCY2H8zZ+cPi5I9ZTjHAu1XfqMEn+UExBI5mOIe4RkHM/phE95hRkCUSI5gyu0/E2Hv93p0Huu2IQpJEyeAXyzWs0/JDcTjvOfUj7rMMMd4laz/yQo1ayBeIJebp4zl0mXo4XeWq8ZcB8W9I/iwamUW5ZtfqnQkVFxfHe5aUkzTbB3w76P/PMMz/vdyfrQl+OxuBtPHucNXUOwA32fylDYfxIyuWnbERDQC7yoiHDkc487TMRU92JeKU/oH8lYkH8e2qHBY1scIfF4vjntIuC+fCWKzOtriuLRM4N+sCXDRlOR1MPVO7YFB8Uk0h/5RUVE3TQBCCetUFh/IRX9fKRTRlQ1nH06wfdkF6N/qngD6vJ/aXb+X9VVdXnfG6KcHeFuAwNxtt4djordbxCXAfpQgWa+9NNI+IrvGlE6eC3gGmwwN2rFHJu06FVzKXuI9pFIdsHkpKVlZaOqh7oXcp0Vb7Eg6/WUSmkWsKQiSka4dQgv37C67FWJKKMu5GMK4ge/wqoT7N+2WuOLGYakbmH32p9MrgZt4/FVTUeSh7U3z1ed+0faom/8Rx0JSNV6IUGwAViVKJNI+JrPBvRXSkah8E4Z4uYLDfpX3WglOH2HKUTgVwEP6vhr+7ceOxtdPq2Qnk0Wr+ckw+9pGPHz2invIBK+8DEB27Rt9MC/t4xYfAg3tO31Vd0NExlysPQlMN/n/6RtrJuwWUrKoIAwM9B+tE/03ZGuvOq/EQio5GOMg8CDkI8qvFwWPPcH2PpHet1jcc/bNV6GkUXZ5Popt38jajavkf7CsY9zjviXjQQ7jQdJ78oJrmD1ZacWfHjxOz4aWKOO1XMlydq3wWBp6J26lv1UoJu+laDoOOnAYuF+lZWQMXPNmH1LUrEM+rjy0CWI5vGA3dl0EL/VEAjVYvdVVjoPPxN0o33ApjNsIXG41eYuVbHi066cbERcQcF1yr3zSB1iFHwMxJhzQ6KCdLWLkUDHqjaPeFtKKawF1xwQc7rqP1A/D8x8elbOcGERTx1lsAB/H8V2M0rIbzDIhee0Y5OWXn5FNN40q1fgvs++tE/E8D7iCNJ52HaaFxRNGZle6csGi01jaekpOQEc5+Ev3N1PGg8nX2Npxce+A7flpiu8MMdFvTX3T6k7x5GtZwmbnKf1L/qYDYIUrHmKsRGACuABSP1rfoHpn82CHjIJYwrXylmGkhJJPJjfUsB99TSVrJ1+/bH8Z5Xf+H/XBKKB0YjKPX3gmjcVcQ+8H5Q4yG9uyPIVPeNW13j6XQwmtB4OCztyUKyGPSyl9UPZzfYe/Vd2hlx6neZjsghPgAtfHFQpjMxqPLSVUI6Ikwt9SUdjUIxGg9+f8x7Kl7oF/q2gk8xV3Vr4sjAw2/MHtAtVePJg1o39jce6jQb5Rl1jhnQ3V5XvyGwt534et7P+ae41R2gf2l4vnelAB7SvIDM5kQdVUMqp46RyG4dVTEaT8a6aCjYAJmut9GZ39pLINDI1LDVqlWrOnulKdHF3pjQePhGtT0HadHF3oRGtF//So++B76t/0sJPKTeYLBFtXSsqHjKVJCO6nDjocW2oDDBnOmVYkbHwP2iDFvnnHNOvS7VUJZVVSlF2MDbaPzM5J6OiRLM33h4gsl7LcvKRaF1HkgdU1HvqN/F03nUfbo3hJnyRvd0w5Y/viAav4gHOo9B99jrCY2Hk4Fc9L7aTjpZpcFYHP+0/q+gqGjb9t+mcPpWfeXgrSHn+R2E28+wlEL8jbeQegMHykOOMGFLo9Ef6VsKvKf0G58JxVxpHq6ONgl0S9V4dFinPMAQA1HuO54jsfEQfWRi4+H3LH4df0tmvQ0lI3rHrhbxNJYOGwAz1JiHTXgKnHK7TyogjGo8qNj6ffYmPlRmsuHTNIBUvNiE1bfqYe4XijraJNDN33gqotEHfYq5ol/SeFnZrl28vKrKN9fUJ35SUuPh6/ZiN16wj5gvSFtI3zLVAgAFrZ9+v8ij5GHoub6+4GmOYAqCCYeGUm/O3FvR6KWB23r9KLOsDiYMH4i+XQ9zHw82yEZp1jRp6GiTQDf4S2g8BrSpDPf6jYGBtKwXtfcU6Gvfk9R4ONlHi18rnO7aV/7gV3sp/6V/JcG0+FzoLSAqZ5GOqh7woybXDP3hg+j1r6Oph989WzKcjiIBHj/1uz/zpIpHR6uANJWbyTPqJ6EDBUkdSm74X11RUfEH+P8kqLxl5eVv6Ch8qLZ3JDWeMSA3/L2Y25xNAsYhLD9/pFmK6s9kLiy1rF/paJIA6TE9KEw6pnrYBHtwUJg03KeDJgFxLQjwnx8jkVk6WgX/g9e36+Fx24vGcpG+HQjU4UA9B8ZG6NN5vBjg7ExqPDwvgCdPcDnFU+5Y7TM73OzuEft040kD/1bibIhgOc2XoJICt+t6qb1mBIauE4PCG+I1P2tjzEHhc6GOJgmsIyrU+mdBkGpr82EMcV9Najz3g/z+xRWDT6AhzHU+wNtTaotbd8gKcR/8cdaajSfcbnwUYajz58DGw6UVXK/8OMi96lxmMRMNYzY4DeRKw4W4tw1SajtoGs9BeaqOOcRRA+orqRrP0+BykPu1XgVXgW+D74EfgqbxHCj+l/UQzRXjnb+pxe75NJ6j3qx+iDrMlP8t5qMxZNt4trqHj3oLEaIeC9CQlshascyR9Y1npSvFOhkTG4ozkxyipaLHxuPFrdISA93+4nbnFTEMEojrmUeC94A0BDUODWiys1XMcGeKyfYvxSO1Z+rQxcd7coE69ZxWyHilYYVt8n219yxEiBAtBNfU/En0dRxxEzowv1qY3TfGUCpJYbMIfl6SN4it8qc6ZGosin9J/xeMJbKzeB1x0uAGz0/maLgCfBn3XlM8W/tMxFqMku/DfT34LkirLh+APKVpY/zwabshQoRohvib/Lzo5R5Uq3tolZnf2c2xJRQ85NPozB+6A3WIwuFZKZWhFu4pVVsCQVr9odGWBEHkrtIhErHS/VBZBqJFRFoEohBaL2nYJdR4QoRolqhe/Glxpb1frUflDj+/4OGqeHbqzfICHaKwmGePUdtIaeRHnfQGck+yEUQ0+GOE0CvIx3KZsBwvRIgQLQ2d7YtEd3RonnwTJHj4arXXPbwnq9B4sPYsZTCTnzzmgFx4xtlrCqL6IydBCiJaHaP9wxAhQrRgdIydKzqjc9ftJE4WPJzT2VfEc9amxZeIaRAmM5AHWqejcTFlGwr0CyJ1UgGEzqJYmQ4dIkSIFgca9qeNjMMmDBIFD//fDfed8RIdIhgDYz3FUPi7k4QQGQoOB/m1a7jtiJHO/xNjDp6C398Q98p2YqyzSR1rch8EyUT44/EmU9whYsJHX1bxzZRVYoazWMzBfa8gohCa4xRP8wpx1MKKRLhHuZ5l0WhEO7U4RCKRC8s0UZaCTo2Ul5f/wsTNdNq3b5+Hda2OTh9xOTpzKsHDr1Yfu4GbfBSq7VXiZvjhvmRzXjZfy4z1S5rHoPFCYwWTtlZ4Ui3trXCN6ij3Nh1Teky1B4kH4V9pRGmsZKbCEuca9VXMO1G9Gr9XQCCmgVVR8Tq4uui0rJV4iLPKI5G0+ckFpZWVpyHeIYj/2aT0ikDkf61OOiugo/+lIhKZgTzyqOjAOLNheUXFG0h7akVFxf/qqHMCj3n27z3ithiQRo4O5MDaoF2gtKCFMt4P8jS+wDKkI8r1OHj4qPEs4DWywLLo20lAvZ3L3ZssfyYiLmUtDfEp6xckt+XQ8hfy1yMojJ/MF+roESEujbnKHmEqwcPD+Xc6wV+Q+jjb1NnqnHTm5DONXZovXxREfEWjIKIQoo0eI4gohKgJ5YOp7m61wL46h33uC9ylyu6hf6JaWWJFXM/6zb8cBirXe4h9Y/PQOZFIThsFyizrYT7ggLiKznT724jSSORn8Ffj30NWaKr4I5GDZ1vW6TrptDB70ApB1j2iVMeDRc4559RCPgvGBW3jCsadCdkKHgiMwPP0U1CdJ+sXPLQah3z9KdvnivCOEB0gXNIJHmone9ztKpdeXF1zurgGnZZ+aBCsD3gt6BVEFELUhiiIqA0ZQcTXsWHxU3RMuWOSdMQUKbMysjHH+YtaZj0PmlLQRPViuD3lXK99BwIVRROH+3C1i0HEHWNDSdVI+UDPPvvsr+nsBALxzA0KS7Jjwd3xpllAOhjJd1aUl9+ls5KEII3CkPejdR2fVn2D4k9LhktXdyw7Okbe5hXQoVonxA3NVDtlBPKXMGjhd6LFxSwA7eBub4duC+1EOymY4/K96WRD5OUjhvcKHsZTUVqaUbNC2ATBQyvL2iklfIIQgucydLx0gqcapEmCuK+Td45/QVyF+1dq/8Y+Ko3KXQPhQkHEr2FBGtHN9g4dS36411mkVkePBye6G8VMmWDBT2EW8jfb3aOOyX0MXAg+Cj6CMHPBR8EldLNT7mpvKqBxd/c+KPOA0Uj+rb0kAG67vH6Vf2hLZ511Vt18WRMC+TjfLxRUR7GsQNv0DQXiHRCUHvKR1KHwmvGzVAKrgVTnIaCD1ZvVYDoQYikNH6cDwiujyKRf8BC4v5bxe2n8Gwa4q8MjvIInC6pT+v2CR79qdfH4S8s6wdPBHph2jofC5A100p3yZiaagE41l4gu6LxXwE9XkAaa/YKIQshoRBRE/eG/Oq5sxOaNkfZeNUc0Cvk2xp3HI977Qe5EnAJOwmvgmPgJOkSLBB6SsihlSGF03nnnJVgVwKtVb68f1akrKoZo5yYFGuSn/QKUhFPRF3OicbveNJkP3E6YBOWkKDUiJZg89IbLh+zYjL+xBE8QfBpG1q9a/rrwEtrXNoYJEjwQ4t39/r30plEneDqic6b7qsXP6XxVcuHn/XjwCNohtkF0gnBiHJ1BI4gYFwURhVBvhO9VM16HyB+325PFMKTln6i+B8KHgogCaLTMa5KxuQENtaKibnSqJxrKX7WzAu697XUn8/vKUHhA+yjxNjr+H7GsPtq5qLAikc7+tP3GQ4OAcLtNGA8d1ml5JPJLrS3UU/22rJvR+b5AP4aMyyt4SAwSoymMaRMzGzIe5KejtxzFFDwqHUA7pQT8bvWG0bfTwpcfbc/pstpZojM6byrBQ03lQXTqPa4OkAaX2b8Wl8eqcR0qrpBX4v/MByJ3lSeKmyEwzGvZDeCt+F0tkzeX3upcKW6HGyeqzXFfNBtEQTSctJU6eCQAbeDMXAXP4Yfa9AgSPMh/X+1cVCCdP/jTTid44Kf+1AYPXcST9Bpfitc2vwDy0nRGaAHnePPQUDIuCK87VSYyIF+NpzF4uI1yLU83dOZ0gofCgF+Ctrhb6wIVED1ijkrPvJqZieq+AceiELfKH4KOGIw8D0KehuDKXfJD7KK+YqAjNfggg4Yyk+BpTOrOx8lW9RXHj+YueKqrq3kM3R6wfrKaZJnMkTHpgDROhv83wUOesIcqKivbai8K0JR+g/u7jJ9cibD7UJeddXR+HNO6desvcILXS7/g8brx1UiHFaWlpafxC6A/zVREfElfeYP8pSLDQ4+/UicPXIHOfCU6byrBYyaHuV1hk5vSlGde6Fz7U3WMoEnbvJpdXZvSxm5OGOL8dyGOEAwFT2piJE6yWdySNB4vEPb/kPcHwIeaiuic08t8zzoIDfiqVd+HkVYXpHlTVoxE+sB//dyjStuyBiT5S0Fogeq1VCetcaX9G3EVBEsqwWPW6NwHbpdSbJUNPi2v0fCae4v+r8UAHaC8Ob5q6bmHpC9paJDDtBcFNLQWI3igNRyX7vWpKcm8UzvTWU0ChQE1HC/9cQS5q7CWtdTvt9gMbqNdD1SIq6FtpBM8Zj3Oh/C33k25fqNZ4RMIyhaGaDQayWNymeVsFBMgSCvhqxs6bkIdBwke3LtOOxcVVjT6x1wED/xsMn41a8vLy3/XFEQd/QPCJOGrHPiBzmpW8AofdPTc5ngsaxrbGa6/Bn8VlMcM/I3eqvFn/H8L4vSewp5mcOwhj69fHJhK8HBbBFcjcw/VVvhdK7+vQzc/dDr4XbUWScoMBxw2L+AhrfI+MI7IPOFLOyvg4Y7z+mEHK49G/1M7FxVIL+lzv3ZSgEr9Zb8WgUaXeHBokYB0DnnTZT44v6GdkwA/G73+WY9NTW9+wJw+mmQreNB+xnvSSEn9HGMQSLdDmNR/MEL40/Ga3Q1uq+knIN9JpB8dPAWuju2sm+QFgwSP2QLBr0tLIIBo9a+Qp7gVCsPs5XoR5D/0nWYPPJyETq0YiYzWzvXga49e+VtP9fAt62HtpWhAOvVnMpFo4Ou1Uz3QSK/2N0adv4yfbfNB27ZtT/HnS6fXQXsJBPwlCJ5myKIIHi9QR9/DwHY5rqv8A0Y+1HHsLY9E+pe3bZv563YCetf8TtyITptO8PBztvqUDdLy+zr4XyGbh9mKHvavxUdK6FDjyes0QUj541UHqqioLgrLy29E41iIh/Rx0ANnx2H6OjuBgL8d/nCk7vR0m8Z0AtPPkmiQN4API64EbYJkQ6+srDxNZycBkUjkT/5XRlLnjWr4SpR/Xr5E+JfBmI4vgaxPpP97nZWUgN96wZNNfRcbyMdIkx/NTdopI5D3gd66wO+D2ikQPOoKWst1qMvN8O9mI3QYf1B9+1nvj+ujIpGpqdpIatxgvypuglBJJ3h4ihIPP+ZJSjzHhPaRV7g5708pGHo5/6dsLtcdJEimN+0RAFQedwgHVmqxyQZQXlExQ2clI/iZFA85WVMqMpFPte8nEzDy3eEdiYtJpoO6y9rONl5Pf5FNh2sKqo5rWYEHJmT6qsUylVVUXKq9JwEDyjNB4UiG1fv81kMwjYDfM3SwJJxxxhknQcD1Ql6e5yATSfOcEV8eH0D6uTvEAAiVTIJnHMiTuEhuzHwVHf8Z+ZiOpfjo53ysjoE7pAWPLV0InpwnXVFR6hjXxqDqlJa1FfynTj5voJHwkMhq5D/GBlRoIu43kM+87bwg/EXI21Msc1D8uVIJmkhkCeI9XyeRFzjyFypPDaVuD9101lLhGNTjrqC2BEEwRvtJCcS/XPm1rLmov/ZsN9qpoEC8VdB4uNla5U/fzgO3OjvFEAiUTIKHRx/zGMBpIC0M0pAXDcU/4bpioTtKzJFZn9SaEYPsS9Siwg3gJ6ARPDboyGu0rxAhQrR4DLHHi7vRsbMRPHz9ojVBmjPlwbXGlCnNVcxDHNxFPtvZJWbaw8V0+2IxU7YSd2xMXLJ+hzxejD3USoyw/yhGOLPEcIThOac8DG4nuAvkuaV7QSN4amSwPaEQIUK0cNy5/5sQPAfUbvFcBQ+PI10EcmJ6Kfgs+AIECM/S4lE25lytV0AeU8ojSg03gDyudAvI8279gme/fFDnMESIEEc0Juz/hhgvdykzFfkIHp6H/BwECAXOSyC1mddBCh2el8XzkdeD6QQPX69kAV/jQoQI0cJwv3OtmO4eUjaTiyl4diL+j+R2CJyWs5UjRIgQjYS58VPEo/JG8RiExRMQFotAZQs5B8HzDsLwUzlPwNjsTmyWCxdDhAhxlOC1+JehAb2utnFsle/gtSt/284hQoRoJuh36PtigPM3MciZLe6w9yg7OPyyxC9bo8B7wQn2ATHVeRPsImbFKsUzMq2h8oJhozxZCZxNmptBzvdskaXaR4gQIVoMqnedKG6SQ5S95EHgrXgVGgxyj5b3vCwKH3X2FV6FHrDXiqnuAjHdWSRmOs+LR9zdYp49TiywL9Gxpsfz8hKxQi4VK9wt4iV3G163HhKvyXLtGoz1cqXaL/Y+yNewjSB30H8olWHrECFCtBT0ic0WA9B5aQSMR9WYQ/u4M52Ch1ee4LBELoTG8QfhP40iCIvjPkNAPrwgt6iz0Xno3vOgmetZhXuvypnaVzLWyN1iPfyQfgGUTb5ChAjRxLjK/r3oiw7L3em0g+wXPLxyUvg9OVLIgONl8sUzcp8ysWpO/FwOcqLZrOvh1osVco72nYiV7gcQPnHxNvxwoyonoCmA3pPFO/c9RIgQBcJV9r2iDzpsbztY8NyO16y33X1ih/ymDlEYPCEHKtOq5GLQnPZpjhw2AugN5O3lePIhbavlT5WwWQ0/RgBx+8T6eMbdySFChGhKdI/dp+wf0/C6X/DQLMbdEDqb5Trtu7B43D2kjhrmKZ/8vO4VQNSAqP2o1y/k73k3WOt5U0YgeLZC+zkA4bgbAuhP2iVEiBDNEl1jV4me6NTmMD6/4BkKoVOMUyaIxfHPqeOEuaCQRwwbAcRjhr1nnde/grlv65AhQoRosbhUfkfZWjYH8PkFD4+34afpApzWEIhH5EXqWGH/GedeDYgCiBoQBdCSUPCECNHy0cXdVX8EsV/w0PTpmxA6W+xfa9+Fx2x7vXgIwoZmM7idggLIbKlYACYIIORlsXxKhwwRIkSLxGU1f4DgOXz2uV/w0ODXPneP9l14zJYXitkQJjQczxNL/QLIrwE9A79PyR/p0CFChGiRuDx2SJ15HiR4eLLnK0rbKc4k7f3xs8UDiH86BAsNhc0CMwmgBdDOQoQI0YLxL/kt0RkdP5Xg6Q3BU2evOLPZ0Ns/+aoYav9eDLOHirvsW8Roea4YnMI0xZj4Z8QEd4iYhrgnQ5jQdMYs/D9HkyugvQKIwmcuOB/357n9dCwhQoRokbi09lbRCR06leChRcFdbnoLfoPip+B1bIO4E0LhDnAoXoeGgdzDdQ840pkt7omViBEHvoXfp4mx8kYxCffvI5H2DFwnuc+LybLOhu/0g98V053rxEx3hxJCFEAUPjSnQSuFD8uURqdDhMgH5ZHI/1iW1duwIhq9Ebcb5WDEQgP5t3igHhkBS0tLv6udGgzaZGacJv6ysrI890F2tPeIyyFgggTP1eBCdPadMuFo2gT0O/SfSthwNfMgkPNB3EpBW8z+fVxjNO+BUBqDeO8FKXzujaU+c2eG8xfxMPyYV7C5+H+mzM8g9TJ5mXjOfVQ8784TK+Sf9d0QRzlKSko+QwPkNERujJGj796mnVscyi3rOV9ZOmunQMD9JxAmP0tH+DmTp5jg+nNvXSEtdYoM3YPCeQmh5VEYOsaclIKHV67+3eX8XftOxPW1P1XG1XnkDVc0m6ONgwQQDcJTCI0A79akEKIN5UwYEz9BzHJiyoLhQxRC8S9pl+yxxK0VyxDWLER8Ef+vkJuESP0K2aZdu2+ist5CBfOIm6KyvKJiGR7enedEo9/SyTcYVjTKo3BnIn6eSBqYbiGJ0e9cnXRGVFZWfg1lvgPhluKadx2rsJa1BKPvYFy/rqPPCeg8zyKu+s5E4t4nuB7IheiQa9Fektoz8tgD7jz7K7AM6cjyIc7bdVRZwVueTIIH7u8GnXDhJ4+5aQOUVlRU+QTPIsZD96Bwfqrjci666EQhOsTclIKnB0hDW9tjUZVLP6rdT+oP+uN2Cr8A4gZSI4DuAI0AogZEExpjZfYNZVb8C2oSmpxh/5e+mx0WueuSVkGrbRiI6zn5hPaVhJK6UynrK7kxyKNGkOb7+auwquHN5ENu7LyjgWdcbtEGnuD3A3V0S1AcDaCOcyM6ahudXEbgNaSsoHmxrO46ap5z9mk8g52FeA6Iw4VmltWAm63gadeu3ffZTrzppCL9oa7OSSV4so2HxPMZxFeteErB0x3kxPKuAHMUfXHveriZxYVBAojCh+dvJWlA0FyGxq7VMWWPKdC8OAE9zVmm72SHpQhjVkFTAJmV0BRAz7gy1cR5UwgeQ/UgI5G5OitZoayy8ocIa/vjaiyWl5enPbMddflgLg00X6o0LCt4S40P8D/ZH74hhIbSV0dNAfBmkJ8GMCvzLkh3uQnD9ouOfrl2SkA0Gv1Bts+DwrlVq1afRb36X7VyFjyIA6+x2QienQHHEfeyR4g+ECJmgaFfAFH49AP9AojCZwTibJ/nCuhJziFxv5P9SYSPys7icaS3AELGvw2DGhBfv1KsxtYjVnDlNRYjkayO5qkoLT2/MTp1KrJhsr50dpIAPy81Zl3qtDLWXdl5530FfpOOZM6XRvCcEXDCJ58P6ykXesOrY6AtK2FuEultg1vMR/+Z9o6+X0fLepxhAwSPhN8P/cT9DWiHSmtKJXgw6HwH/68HN5twHu4z/hUzCh7+z1etnfZvGXkCetpvKj9c58NP7kYAXQdmFkAqs3lhgjtGTEGeJrmT9J30mOfuSFwFDWHDhYhmFfRT6U8YxWjxbVT6m6g8F7SLRDeKd9+gjsl7aFxpT2BFHk/2N1JDNiwyIM2CEGnURiKRN6C2p7RUAH883zwwfzrfbPCB8WeiJ45Awk9OWqMfiGODiUsJjmj0bO2UFmoy1fM8ddh22jkrWL/85dcRR42JQ9GyRmhnBZRvd4J7FlTCxrL+GCB4DuhoUyKV4EkHtN/+njSyEDy8voPOuUteqeM4jO6xN9QcEP3x6xcFkF8DovDxCqDDr2BX6Vhyx4T4N5TgmQpOtNOq9mK2vEs8gvybUy38q6BpaP4JOVX7blJcdNFFn8WocWPQmdOqY0WjKedPIBg5KiWE0Y1jDYRSg470bShKI2jaAWVSDT4SGd26qiq9Ubgs0Lp16y+gMQ8Nqjumg3oN7PC4/z/oFD3SEXF8ZOJSdYp0gvyRqOsenAdh3Pj/D74OukAlmiNUvJ54kP5w7aSAeJOefSYyPpT9X37Bg7jsMssajTTH+BmpqLiXn+VRrsA5Hty/Nygc3EfB32vGv2JGwUMuRifd6Y5XpfSiS+096lXM+O+p/V8DejUg/yvYrejs/TIIjHSojn9ajEcc45Avnts1wQk+W3q63U88AneuA6KFxAX6fwqieaC6J1/TvpsN2rdufRwe7K6EBwViBN2vvSTA3xCUX3a2iopmscgSDS9pREZ+ZVlV1Te0l4KBX8pQH0mvTaxP7SUB6AAv+v02lPxqo16z/IIng9aaChQQCc/XJ3iQzhn+L0r1fjUZ3uuuBgLL6hCg8aQk/ZWVlZ1diMnlOsGT7qsWFxBOUYJngyqlF91kGRgXXeHHCCBqQEYAUQsKmgPi5/eO8c/oWHIHVzzzyGKzDogLESfIDWKC/UflPr6mtZjmfqAmoafLN8VM+X11n/M4D0HgPehOE3PsseKRWFt1vxmivRCfwgNyvQ9LPfhI5ELtpR5w42faen9sFGjks7VzkwIN7Ex/g2T+0ICLdhQRNaiEjgqqPFjW6dpLPXBvhddfIajL99PGEjwE59aQ5jdIuH8dwqC+XCqsZfUx7mSbNm24TOT4phU86dbxUPDwa1Tglgn87mTb4gr46QIyrFcDMsLH/wrW156hI8gPw+1LxGjk5x4InVEgBdBYLYC4/YKvYLxOqu2gQ7RI4OF0TGhwdQ/Mb2/62IDXGKndmhzobAnv9iwPGmrRX22R1pCAuuutneuB/A2jPz8TwuVIdkAIi9aNKXj8QB1n9Tk9SPCYOvCTc5DpPqebOcpU9KaB/KhXrdq0gudKCIsadOTtMllD6FDbRnSDG8NmI4CulbYOmT+G2e+K4YjLLESkAOJ57dR+KIAmIj/jYtXad4sGHlKC1oMHmDD5h8bdyv9Q0RCWa+cmB/KT8G7PRs5Vwtq5aEAaJwQ09ue1cwJQh3+HWzfNzuxICeFAFZdl7fTfJyEYZpRZ1qR6lpdPQYf+VoDgma+TzAlIt1NCWYooeBDuELSaCPLe1s+2llV55gUXfB7/BwoepFHpD0OifipQ9inGv2Kd4HEWik7owKkED+dreNLDVneKyq0fl9p/EF3R2TvBr1cA8RWMcfH1i/FdAz9XyYbvGeEeMLMI0SuAqP1QAI1xPtE+WzzwkBLmevgur50USiKRHyc0ShAPu9kIXTTKjd684XfDB55sAO0c6SUIbTCj4bjySOT/JdUnfqPjqJXD+P2e101zf1k0ysWex7Rv3/5TJP9Hh/uFNy7+z8lZvhZR+GZDPMuTrUhkhyeteIVljWRe0iFfwQMGziN6EYlEzvGWKxuBCj83etLQgqeTfX7aTaJ8RRoNuhAc8fixOq5E/DN+mrjMXSO6+ARQV8RLq4bdnEe0z9S4LnaFuNFZL25yNogb7dQTo9x4ylXQpBFAFD4kN6TeY4/SPls88JByEjz8Hw2j2Ri2bzLBAzAtb9pgWsHD7SXeuiR1px2svSjg3tteP8YfX3lJPqOKc889A8/hP/zxsZMbf9nSG57xQchdqrOSEg0QPCr/6RiUpyB/XvrTqBM8/5YniyvQYdMJnqvBHfCzRf5K5zkYlx76vugY7ygus4fi9W0INKk/4/cJ2jU1+sTmqFXQZg1QNbSaGyGAgjAwdqj+TC+ugvYKIG7DGHXg29pniwceUoJ6z4eonRRSCJ6kCeimQksRPBXozP7Ooeo1EhmgvSQA/td4/XrJcGVt2/6U/vA7QVtpKBF3VvN3DRE8jUIleIjL7YNpBQ+/SC2C9rLdzaiK5YweEHw8SkfNAYFmEeJNuHdDzNK+DuNWt5/6MsZV0BRARviofWB20U4MraysPOncqqokaV5M+h8Y7+nsKAS9anFE8sdTSDI9NOzteJW4W2cjJVqC4MFrwGVBQgevXf21l0DA3xp/3Zuw3LpCPyVVVV8N8pMPmUcMKsF7Jn3IVvBw0adfgyk2mR+8Ql5Tl4NOsavEFei46QQPhQFXMb9f85O6QAVC54On1h+nY9YA8SsYNaC+TvLCRaKfs1DcRuED3gbtiHaAbpc1YmSGE0obALybf7mxH5Kf7Pg6OwpBgqexqBpQJOKWRSIX6+wkobkLHgidf7Mc9GsIfwdKU3RUP9ChOfG71xf+dTjVfwFu3br1cbg/F/cPef1lS4SrQTorOd+jo0xASUnJCWeeeebnvUS5XkA4VW5VvvLyK73uOqgC4p0dlG4acvuFt15zWnUO/zt10sC/Pz5Z9EDnTSd4uACQGys/dLfrUIVBN/l1cRXSNmuAzBcwnmLaN80u9Ovkd0U/9y4xwJ4sBto/13eLhlDwBFNpC5bVUWcpAWhozV3jCZ6zbEFAuT5mG/DSV25Fn3uNqJsEzxkQYu28aUDIpbTukB062yvSCh6eq0XhswsCYYO2FFgodI2tT14FHYtp14ZjaDyr/TXpEAqe1GS+uGpYZ6seLUDwJAEawBnoTHdBmD4MPtQURB4eAQeWlZWpV7Z0QDn3+MqZkarNWJZa59YmGv0B0uqP3zdlQ6Q30dfm3sX9G/z+UhGCy2e7vfPBSqX1pBM83PIwB9wiD+lQhcMVsckqfX527yHni6p4yp3OOeNV92n9X9644IILPo937NmovFmNQTT+GXioCRsEsxQ8zyH8TH98hSDyNBvxB9qXQYNU6zm8wL0WJXhQvvlNMtmagmqgs6zk7UoewF/Oq6/5/CAA/gWBczzbVJCfYlHVb2Vlic6+xpXOtrSCh7Z2yPfxyvW+619F23zxivOmWFxAQdZIwIPK+XM6GmqyJYECozwS+Ze/gzJvbMjai0JLEjxlljXO579ZUD/TnjqbSdCL+tZRSBn6BwY+K687nxW0qcsRrlWTCFrLulNnX6O7/du0RxhT6HB3OU2Y8vP6enmRDtm88ayzRHwcP0n/ajHAQ8pH8FyinYsKdOwnvXlj2mU+kxEtSfD4OyvJe01Bfz4s3EMWU5pu8QNlX2rCqvgs6x/aKQGpPqf789MQ+uNWrP+c7sWV9jsZBQ9JUxMfKls2x+mQzRfPOYvF1pZn3B0PKZ8FhFdo56ICqvp/+hsWRtCEgailCJ7S0tKfeTugKhdecUqhPaKcv2tM0vwJ0l7iybfSWGg2RWc3I1D2hqzj2Qn/PcE/Ij//ifZ0sT+P6Yhwv2U74BX8J5hQFsVAwdNTnip6Q5tJJ3ho0IvXl/HK9Y67WYdsvnjaXSW2y2f0rxaD8oqK/d4Hxo142kmhNBr9kb/zY3Qcp52LCjSeC5LS9tlcRgd41+tO/9qpqOB2A2+6ipa1RjsngbuufR3wPZq9RZjvNQW5tQJ5qLciWCzBk+pVSz9Xpr8DYbszTzpIWiC+k5XQqZt3cpPahyYEVArj9T1ij4qrodGkEzzGkPs6CKl1Uh1x0WzxtPuOkDxRouWACxYDGsVK7ayAB3ii3w8aXY12LirQGDMKnrJIZJLXnf4hTP+tnYsG/w5qzZR7nAIEj8prU9Kbl2IJHmg8X6QW7U0riIxD1Q+1l2j0bwinTkJp3b79cai7C9EO76O7P99BVHFFIu1VBgLBr0uZBA+3LXC7wnr4XSUn65DND2vcQ8KVLerYYzzk1/0PrTzgNQoP8mOvHzYAqsfauWhgg/M3NDTABANvEDzn+f3gd0bzmg0FOh6PpklIF3lLeXZbkOBpTiyW4CHwOnkJ/K9XHweyEBwk84MBpDaXMJzUxrUW4e7SSafANbJcXAuBkknwcKsCN5FS+KyW9+vQzQetVx0nPkbeHLlP32n2gIDp5e8I6iEHnNlURnMOHn8kGoOE8DlVeykK0FgTzEewAaJzn6WdDY4N7NCW9aJ2LzgQ98P+zsA8wCnl5OzRLHi8gL8LIBjG1IfTceRLmqJFXhaURaN/DVrnlRrX1MwQffHKlUnw8CsXhc9adPDX3Wk6dPNAr9pb1c56Rx7Ud5o18OBnB3UCqrPaSwJoZkGPJgnkiQQQSoFfMxoKqNq0pJyQHvPAuRXtpR4oz7VJjbju90b/8v2GgEIZca72p8XfQZqiFwGC5yN0mFeakCvA+q0JeQiehONtshU8Bnid+jOe2/smjnyIPOxHHLdwS4eONkdc63ycleChWYqx4Gp08tfc3M69KibuszcrC4oNEDw0WI6GfQtYXST2S/eg8RD5NSjliA2h9LsgYcV7CHsQcfOU0gEB6eZExDEY8b4XOBpa1lKdnSQgLI9gSQqj87cbXADOy4cQro8iP7uCyk/CbZvORkrwhExveIQp2mbjbEAhg/zkNbmMgehzCMNjbExZOGhdpp2DcAwGklL4XYj63Me0Ap+vj9n4o7uuV75irUUb+Sfyl+V+ymp5orjJlVkJHhrkuhd8FR39JXenWFy8TZtZoU/NxWIT8mIrwZPXznpU2pOswGLT+8C85CsWdznr7KQEHqwy4xkUB+lPL18GxU1tB8IlpTkSHlmLsAlnPTUGkaaNfGU8IpudVXcQb1hemedGp7+e+TtImyTgziUXKcMqAZFwZnki4GefP0wQ6Udr1rvQ1h5DnFVsc/itBiJ//QXR+ONZZjr5DLheniEGoPNmI3j4yjUGXIZXtDcQ5ln7PB1L42Oos1tpO3WCZ4e+mzUiAcacGpkORokkI+WpgIZwRzYNoJBUDamiIvhsfQ8w6lL4FOzgvExEWvspUHTyGYG6Szx0rnnRs6M7EdBS0p6rhdfMlJo+21a69kJBg/htPN+nIGjSfo1EX/kl6pAmTrdknHROWrmcDjfYF6qjabIRPNR6+NrFQ/ReQ5jlzgM6lsZDr5oZ4kOkTXvRFDy2pLmCnNBURxjrkWWhzkZO4Gshwu5vjHwzn6WWVXe6R5ZAI56my1cUstGjs0zUyWWNcyKRU4uZr3xJwQAB+mWdzSSgrFuDwpEsT5s0X/P8Cwj5P8MgzhcxUPSCgMhq/Y4fyO+nIYT+D3yQ7TDpvLPABYTpUO38RdnAyUbw3AdOgOCZAS6X0HxcRyyxG2U5v6iOdVTnaB3SgkeCbnyQds0abIx8GKy8YpPpqLQqKqbjwTTY5hHi+BUa0BI2JBN3oajyXFExkA1MJ5cTysrKeGwwT6CoCYo/HyKuGPJUjVeSL+lkckY7LtyzrA+C4m8KWpHImzyjS2cvEHzlYcf2tyXUxwEMQj/T3gJBwUNBDb87yyzrZsTVRjsVFPogwEvRHpfrr7N3aKcc0N9pr4xwZSN4JkLo8Fyu+0FqPy8g3BL5vnhCZv36kDP6196ujrqh0DkAUvDwdUvKlEfspgI7FiqpFU0HFJOllZWnNaTDZAIa2BdRDq4qbTDz/0qRGkoQBaSVDRlWR1Mw4Ll/ISitxmQuX/xYB972dHaWn65ppOyCAn5ZzBb5P7MBNX9SVv+yFTxTQWo+D4ALwaUIu9DeIR4PODInX1Rv/4LoH1stZiLuTzSN4KkzVJ+X4aMQIUI0JwyOVakTH3IRPLPAB8E54AKQZ5c/Bs51bxcP1WQ0ehSI2+NfFXfKoeIOxMNjeD7ClQsGjeCpBWNyjvYdIkSIFo9BB74jhrl2XoJnLvgYOJ9XCIy5EBDzwVnu42Km00FMj0XFJPkVUe07UmcE7o2KtUV614mhzgZxF8I8iPA7NGkX2it46rSdgp/THSJEiKbGCLlWjEQHz0fwKM0HfEpfeW82ws5AfDz//AFN/p4C8tx0cjb8vQBuhbDZAm5LIXgOxl/WuQwRIsQRh+H2zeJedPSGCJ7F4DPg8+AKCBGSr08vgjTB8Tr4NvgeqKwggpvAzWCQ4OGk8p540SZtQ4QI0RwwTJ4uRtmHlEbSEMHzLEiBQ8HzCvga+Ca4GlwLrgPfBdMJHk4qfyIznroYIkSIIwX32reqT9pNJXj2g/tkWiPZIUKEOFIx0X1Wzc80puDZh/Q+kpnPag8RIsQRjKnxk8Q0uUh9tSq24OFk8i55o045RIgQRz1myq+J2e5YsRDCgUKokIJnG+Lb5u4RW2XaJeIhQoQ4mvGgvEjMdZ4RT0FgcBHhIgiPXAXPewhHkxeb3H3iQ5n6qOMQIUKESMCYlz8DDejH4nG3v3jS2SSWOLZY6rhiuSODBY/rirWuLda5+8W78T7i3YOn6JhChAgRIg2q48eJW+VXxDAIjeEQOnfIs8QdtWeJoYcuxPWf4i7nX+Ku2n+J4c6/xSj5VzEyfrYYBfex8kwxRbYW0+UPxWx5qlgoT9YxHtnYLn8gNsiFYrO08VoplamPzZpb8HuHdODnTVx/pUOECBEiRIgQIRoF7Wd9Slxf+1NRbf9J9HPvFP3tZ8WA2AFxOwbpISCv3NOpiDeooeAw8C5wBDgSvBu8BxxtCL9jwYngVJC7KR4G1Tw1ONP+RMxyHhczZGcx2/6jeDQWFfN3nahzVBy8BGXkFRmpYywiXpVRvB2eg7fCr2sfDcN62Uu8C6VmI8r3PvgBuAHkb5LKD7kF5PKlbXKe2Cob3cpBiBAhQoQIcXTgavlF0bv2UnGTO1XcYO9VNgr7g7e4oFNnLHUASLuFA0GaEOMZpLTmcztIwxok/6ehjWkg7QfOcfaKefYKsUBOEk+6t4hnnW7i5fjvxXooM5z5+OijL4u98iuKUp4sXjnwLbGgto1YCD/znA5irnOjeMQdIuY7ncUiKCVzkM+GYJn8lXguPks8L+26szTAVzRp3p6/XwfXgHR/Va4VLzu9kOeMptqTsFaeCYVnl1JseGLZux4GKT+c8eEM0AZ5uYjHsz7eP0SIECFChAiRDn0OnSaurh0hrnV3ipsw2F5PQmG5EeQ5ODeBPJIilcJDDgJHIdxicLm7XayWw8UWeYnYE28+38ipPCyWPcRz7n7xEvK5TNaRRqSVIWnwOZDf/l8AuY2e5DqAl0AqQm+Br8gXwVY61sx4W7YTb7l71GKltzV5SD2VH68CRHcqQFR63lcKTyfkOdGAUYgQIUKECBEiB1THPyeuqukletZuEzdggO2DAb2PXXe2el8wk8JjjsWZjLCcCXlPLhc75K/F9iY+9C8Vnqo9Szzpvi6eR16fRlkXay4Bl2o+A3qVoFQKEGd/VrgulKAuOvbMWCUnqyOhOWP0FuJYo8l7VH6MAvQOSIXnPShVm/OYTQoRIkSIECFCAD3l58WV9jhxlSvFNRhYe0HJuQbsDWaj8PD/kW7dp58NcqPYLv8uVsWP07E3T8yXPxAL3WViOfL8BJQMbiV7UvMpMJ0C5J/9MQoQy7/CPQgFqJNOJTNWyv8Sq9wP1QwPlRsz22NmeTi787b8BMpPn2ZfpyFChAgRIkSzRA95vOgWu1dchUG1J3gVlJueYLYKzw3gCCg6nJHYItdB2blAx9zMET9GPBq7WjyLfNNgx0IoK+TjIJUfvwJE5ccoQEb5oeJjZn+8ChBntp5134DSk9txZjwR7FV5lnjD6QAlqJNYJbvieqF4PVykHCJEiBAhQuSPbjUXix7OJqXoXAmlpgeYrcLDKz9dvYiwW+UhscXpqGNtGZgbP0U87CwSi5B/nrlMS2UkD/9aAKWFTKUAZZr94TqgZ9y1+D+/kwtDhAgRIkSIEAUAP191sm8TV2Jg7oYBvjsUmlwUnt7gJITbifA73efE2ha2pmRW/Dgx2x0gnkT+aRPa2IUm54FGAaLyowglxswAkUYBCvr8ReWHSuASuRIKT1YH6ocIESJEiBAhCo2uGIQ7xWaL7hiUu0CR6QbmovBcDc7BoM5DHnbK8eL9+Od0zC0Di5HfGfYg8Qjyz2PYeRDGQ5oPg0YBegT0KkBeJSjdJ7CnEe/Tbg0UoPAAjBAhQoQIEaJJ8P/2fkVcFpshumFQ7gwlJleFpxdIBYEHBm93p4hdsrhG/wqNSfInYpqzXhkz5JGDM0Ge/vUAOFszWwXIOwNkFCB+HnvCdcUid7ROMUSIECFChAjRqOgqPys61vYXXajsQHHJVeG5CmEmYGDfi/C73JfETvkjHXPhUB0/VtyFfJI8C6cQ4OeryfZ/iUlQdKYj7/dDMbkf5eA5y9PA6aBX+clWAUr6BMZZHsT/mPO8GBMvTN5DhAgRIkSIEDniX/Z54nIMyp1IKDC5KDz8nwYE38CA/omMiR3On3Ws+WNAzY/F7U53McRZKO6096ujJ4ZCcTDHT5DD8ZtHUIxwtooR7nh1FteYDOuFquOfFvfW/lSMlzeK8c6HYhLyTE5EPFx3RN6P3zy2Ygr/d7aIqc6bYpqzQnG6swYK0CYxw6kV8+CHs0GzEdYoPyQVH6P8cOaHfAz+5joHxSP273ROQoQIEaI5g9baU/HY9u3bfwrXECFaGDpuPkF0jC0WnTAod4LikqvCw3ucBYkj/E75kNiY56Ge/WPlUJyeVOdskYMR520k8mSOoCDvAHkMxVBwmOZd8MczuGi1eQw40tkMRWiRGBmbJ+525oh7nGVilBNTys04cCz8jkWYcZoTcI+KzmS5RkywB+D3N3SuUmNW/FNQfNqj7BPFLLlLnef1AIn4/LM/Sjly9iDeL+vQjQfa5nlOfls8L08Xr8hv6bshQoQIkYRIJFJWblm721ZWxiPRaBKjbdvGKyIRu6yi4g86SIhGQpllvd7u3HPVM/CSzwrPJF5eXn6l9tqsgDZ1nlVRcYD5DMo72tuzrVu3biTjw5fbF4qOtiMux6B8OZSXXBQe/t8PCgctCtdIKXbJHjrW7HGz/Qtxq/uOuA3p0xKzscZsyNkjQyo/fgXInMNFGgWIHO7hSPBuzVEklBCSh5FSARrt3inGf9KwXVMz5feh/IwRM91a8RDi9H4Cm4Pfs6HwzGykE94XO5eKZfIZtSOMM280ePgySGvPPObiBdeG8vOwWGE36IR1NNLjSktLy9DRKgD+adG0gLKyMhSp9LSSkpIW8+mxqqrq08j66aYM/nK1REJIRs8666yivyBUV1cfiyr7HljSVO1Yp9sGZT5VZ6tJgAr4HzSgg1Rs0IiSqAZVyzqEgXdwqWX9GXX2tyLyn6VoAzprOQH1+LNoWVnEW8fFIvJp8fkhzf/QyRcNSOxZKgkpnksNstJZe80J5dHoLxDHFMT1PPgS4lnRIEYiryCeeZClyvRKaUVFFfK3nfk0eTbUeV+EujyefnH9bxXeshqeD5QF8S/G/3ci3m8zfgFlZ6boEHPF5VAEclV4eI8zLTy48iN3h9hm/74u0ixQLU8U19ujxK0IexOUAq9lZpKKlFGAzDlcJM/iovJjDiBNNwNkZoHuAqn4jNDkSexUdu52R4jq+Ak6R4XBOPlFMdUdBMXnkJrx4fqfB3Gd5eyFwtNa+yoOFjndxNPuQWUdmlvg/TaAvMdfkFSAnnO3QWFtp2PICedAQLPBshP63wRbMs2bB4lO8zE64HJ0mtHsuLroTQYI1gshIEYhX+zQe01ej7RnUNmuXRxC6r90sQsCaFG/RN0NR70tBXc1t7rz5gf53IPyP4PB9HZcz9dFKBqQzrXoy7VBg5Kf9NMYZD0gvT18CdHZDASVL2gfy1BnLusv0gTP0zw35PcdKIQDUJ8F37SD8hVU4YlGo19Evd3HvuaPsyFkfeC6Ec/tbKaTjcKDlza1oxttvYsOXzCa9oT+315A2XlPdIxJcRkUgVwVHrqNQTgbA+dOZ6XYKcuY6YzoEz9J9LUnilsQ7jqEp0Vm0mulOZ0C5Fd+slGAzAzQSKQ53N0ghsfKdW6Kg4nyB2KqfFMpOzPBaY4jpjvF247+uHOteMKNqa3vuViBfgH+n4Vytlz+p44pa5S0bXsKGlQsqCEfiWRH1GX9AB3zatNJi4nWVVVfgFDqhzQ3GeHqzdORSjXol5f/RldDXigpKfkSlNU+EKgb+Nw8z6/F0OSbRDneRXm6F3r6H+3rRsQrm2PdqPYeidyAbCYdiIz28Xu471V+AsI2FVmPoES+R7dq1eqzOrsNBp5/JoUn+yOLAMiwVgizpND1p9vqh3kqPF2L8TyRhsOXByg8UAI6QnG5DMxH4bkX4SUGzZ3OKrFLZqFExI8RvZ1LxY0Ic61bZ7+HpOJDw4WkUX7SKUDpZn9SKUB3Ic2hzktimDxdZ6a44I6syc7TSuEhpzo7xGR5lnYtHJ5AeR5z1qtT5439H2MDiMqPUYD8yg/5DMJwRugZ90G1LikHVFZWfg0N9I2ghnykk2Vmx8T1jTaQGrpKCgbO5CAdTsmqtPzpH8nUAm9127Ztf6qrIyecY1lnIvwK/XyS4m/JNO0OgylnHUt0kRsEvPlegbgPmfrKhf78pWJQ2GzIAb7Msq5DNusVHn7Chdy5hu5BaTUXKuXEsp6JRqMp107y0zn8/AqD8e9w/W0QUdb/gvJwEa5v6b6RQF0PMbSJUfBzvjesiZdLD/yfiJGvH8D/4qA4DRk33bOlVsg+Rpr1s034/+eZFJ4zzzxTHZF0VkXFt/H7Icg/GRR/OqZrD1R4kI/boPBAaWmIwsMZHgcD5m73LbFbRlQJ06FX/BuiV2yuuBZhrkFYso+mMWCYjQKU6fMXlR/v568hSO82+4AYdOhCnZPGwTj5LTHRXau2vc8AJzsfivEF/LQ1If458YjzuLIMze3vXgOI3iMwSK/yYyxAL0E4crE7M1eFhzj77LO/hgb1MBsbGzuvLZn+jpINWW68Jb9REon8WFdL3oAAaoU4V2jBkTODytQSSIHFMvMKwTQXzPmlpAwKEurgJRVHQN1kYlC+GotB+clEJeSj0aX51JUfZ+PlBYpPLwyQY9CW7wHvzkTkYSQGkpm47vPmy5Dlgvtu+J0NpWWEP3w2RLhxZRUVFyGL3B2mgPJ+HfF/nK7etNtGkOtSnisGUbaVuKacGeN95RaJXK+zngS8NJ4Ev2qWyvhPRX/8QQwKZ8g0UKcvRC64QK03Sqfw0D/Kdwh13ZkzNVBAzklHxNMG/n4YtHsPcWSt8HiBtngiwp7JuIPSNIS/s3AtQ9kmpOr7SKMACg/v8TMR1/DsdmvELvl/Oq+p0b3mJ4jvHSg+dXGRV5OIh8oPj6bIVgHK5vOXUYCGIb0B7iBlz6exMV5eLO5zPhKTkYep4BR3j5go/6ld88ccKFMPuc+IxxEnLVx7DSD6jSAaBcg/+8NZoUVyH35X6FjzBhrUTyCcLkfDuxa8poXxarAvBT46yKPgWnbGbBUP+gVtxDGQb6C6SrLGRRdd9FmErcYApuIKSsNPs1YB4d7H73ngEAwQvfE7qHzNkshvH7Sbq8A/R0tL87PfBSGL8Deh3pys6w71pp/tVgjDBQg/FrwOz5/tIDCvRWF5eS+kewP+v0/lA4N0veIXkG8/VbujX8TRFFvFS0pKTkHe3w/Kr7pnWa+DBZ1Rx+D2J9SVHfSs9b3t5W3bNlieZYPW7dsfh7wsRFmlPy9kW66Psazh2nsStMKTVnkrFJkG8voJFJNLmXYmhQfXA/B7MTenUD5lQ36aQpzHt8L/Ih5XSirKn7XCwzbM8IyHDErDT+bvggsu+DziG5JKXiONAig8/J+zKK9iMOW29B3uEGY6La7AIN2tdoE6gZ1xm3hJxmvI+BURv1GASKMAGeWHNLM/pFGASKMA9cfAPsiVon/tv3QuGhecORnrvKsUnvGoq/HIDxWfie4aKD45r50BjhEznavEHPejumMwEKcxfui3AeRVgKj8kEb5UZ/A3PehAP1MxxvCB75d4A1tBDpLyt0rXqoOZ1nzIJSz3rXBNxkMGvdmo1zpPEgoCpMgjDLPqB7hMHXHRaP+uvJTC1wOTHPwXDlr0GxRFomci3w+wDxn0+5U+S1rHOtDR5EWGOzORh28fW5VlRqU82aGemf+6ScwbAZyMS37BOJ4HXmt3zCA//+AASxQ4dF19Sj86F05xQf64d+RZqDSwnLguaRUeDhYw30s8x0UvpDU8e9FG1HjYDaftOgW1Quys2XluecyLD9rqU+uuazhQZieQVvv01LnL105vArPWtEhJvPapWXIQZYKzy73abFVfp8ZTwlqfV2cDuoU9m5I05uGNx1vWiRngfwKULafwAYirZvtZ0V1TdOcUE6Dh6OdRXU2gEjUF0nlZwp+T3QP4v/p4j77lzpEMKYc+rmY5jwoZkpbGT1UC6IRxyxnuZjtDsL1L+JB+VcoQP3Eg85zyjbQfPBRkMYP+T+PuJjn7BPz3bG4rxaVhcgKx6DDdISA2JGuY5F68JmZzbZqxHc8BuyB2QwcuNbAb3++1ejgRzUuatXqs6jnlG91hrruXPgdx3VnOniLAJ81nznyXxM0YHjJNsS2xDalg6cEFPKfoT5ezNSWmwNVuSORg6V6BhDlS6vwoA4ew6D+HVXQRgAVCKS9Nyg/mRQeg9K6TzL94Zefc+f4+DDcZqPMu4PS4D24ufDzBvzO8oU9zEiEcU/Dsz+PaWaj8ORDHV+z2aVFIg2j8MSmiI4xR1yOgTNXhYeGB3mftm22YiA9KB2xS/6dGU+LK+RXkM40dSL7FQjPtLpqmjS96frTVukjzWw+gd2ENKqdHeIGu+kMZQ2rOV2MtLeLe5EXYwNoNDgGrFd+4KaUH3C8s0tMcFaL+5zXxETF98Qkx1ELn+vWAdWK6e4oMT0LBW7WquOg2JykOKWFnW/WDFFSVfVVdJ6MA4VWelJ+uzeAsPxPdHo7KA5DLSg2lrdtW/gF7y0YpZZ1CerG9deXl/o5bcdg2eQmBRoCPnuUY2PQoOEl2xLblA6WEhj0TkX7fDKTstgcyDKTKJda+3gkKjzZAOVaFvS8VN3U7dLqoL1mhaNT4fl3zSVQemx1rEQ+Cg+vVC6ewqDN3Vrb5WNi04HMja0rBt/L7fvUYaVXIDzTNMqPUYCYfqoZoKTZH8ThV4C4E+w6e5vo28RHOtxljxYjHFfcjfx4jSDegzozChCVn3tBowDRArT6/AXeB9IS9H0uFaF/6FhDNBHUVnHLWpmuYyo3y1qNDtxGB0sCZxsgLGeni0cLiY/5Rq6DhQD4yZBvvZnqDs9pDwRu0e3YNAYwgHBR9kdBA4ehbnezMICkP2YHKKus/CHimo8w+1FPh4KIuLggeb8/nVRk3tI9kwByZiKt0so41bPMUuHBtcV80soFKHOh7fBkUngk4v0E110k/t+dDREfr2+2adPmDKaTo8JzqQ6fNT15O+iP3xBuWuHphDf/jrGt6miJfBQeHh7aUw/g70JpUmt5ZPaaZkelcG1RB5d6j7ZIpwD5lR+/AtQHcXEXWC8oVFfv/KJOqWkw1PmXuDO2T9n/MQYQjRFEKj/kPSSUGjPzY2Z/jALEIzHGukvFHTLjVHWIxgE65t/RifYHdWJDPcvzNx0kCdzVBWG/Ll0cipY1LvyMlQjUSUmZZW1KV3dwU2ud4p4dPi0Z3MKMdndHUFkN1QCCNlWIHYNEWUXF/yLeHZnaqEoXSogVidwGZfRi3Hsvk+Kj4zyAZ9kTSWW9mQTxt2daQXnSaa5BPanBtjFAxTtV/bRUhcc8Gyhz6vNXQ4B85bVLK1eg7d2aasYSaWiFp338U6JD7U11B4di4M1H4eGnJO6y4sLYfRicP3I3ZWeTx4NL7QtFB/sZcQXCU/kxyleQAsSrUX5M/rgmqDfYS25H/m4VPbc2rAKr418W1bEKcbO8EP9Xgt/TLrlhiPOMUnZSWYD2WoEOmv3hp65RzstIX2nAIZoHIHSj6Ei71A6ZgA5GUuGBQPmrDpIEDkrw93YqYanvc+1JOKvnA+qkBEIs5SceLUht1H9fHeSIAMr9W1Wu9G3m7YYqPFB0OGuxJ1U6htrdoaLDBbg6uAItW+P++mw+m3HHIa6bwfEcmKBE3GFIJY/E4KvOOGzXps03UQdp1zQpN8taqOO63RtfIYh4ByMP94NpNzNwQS3zoCqkgUBaja3w1KKstyPefzaQgxFX4Cc/fW81d/cGhMuaKMe/kdfHUj0L1I9WeIgu8vtQMHbWHSAK5SEfhYfkIuEXMEjXIJ5tcqnYIb9Zl0CO+FcsAiVsoOjgPik6xPaJ7oiP5Ocvkmt/uMurK3iFs050dSeIrrV/FT0aeFbV9TU/EtfZM8UNiHcAeDPINUC0CM3fXPx8k/O6uNn+ow6RGQPtyeow1CFQKGkAkaTyY2iUIL8CROWHh6GOiB0Q9ziZ10WFaFQ0lsKjO+olOkgIDdTJUanwoDwpP+eYcuOat8IDJYXrUfakG8RJnQ4/R9EMQ9qXsRK84cPvmmwUnyAyLZJ2lhgftzxDkRqcKY9NTV3e16FY5GduwQc898b+pHXEEPXjUXhom6ZjrKuaWemMgTYfhYcLhXnlIL4ag/tBxLXZHS+2xwtnBr19/DjRftVxyG/Odk7SguXv5fxN9HGl+hRmFDiz+NksgFa7v6DQ9YOfG51HRDyLqfJ+8rtioPO2UnoGISyNIBor0MYCtFF8EpQf+OXM0LDYAzqmFgNlE8GyrkPnfBjXI5N15zHVQvAGdjCyoQqPJr+jvxiYhxZAlP/hMssagXrqw0XGeEv/ii5+g4C4Q4UnRblxzVnhwfPpiHAf5aDo9EdecvrEzrUcCLsm1wGWaZJG4SGgZH26LBK5qbkO1loxeamQi6fx3Auq8OD5FeVoieZI1I8+WsLg/w58G0rP4jqlB0pMPgoPlQL+zzUo7yCeT8At7mCxCopKc0a3g6eInrEacQ3yy7J5F0EH7QDjDND19kEoQNk1sIHxk0R/Z6kYjHCk3wq0sgSteTvqjkYSlRJk3yyqoeC1MEAYfRkdaV5Q5zyaWCCFp8XTDFgUrGwTurxbMGgOgxBKb8YiBUKFJ3W5cc1K4aGRNzyDLvB/wDyXVNSDYgz+++Wq6PhRYlmViIsvDG5QWn7qtOdVlZQkLcQ+i7ImErmVA35Q2MYmy8SysYw6iwUDyrg8ncKDvnSZ9poV+PxRd70zPftC0J9nP4PCFIpsP6ifj9okrevqEmsrOsU+EV1k/goPP2txRoTrT6j07AI3ubcbq4vNElR4usdq1TogltGUU1mABs3uL7MD7Dr4uxYKT1+ni44hO1TLk0V/ewCUn/fEre4+/C/FQNT1INK2xW1ylxhsr4bi809R3cyVxDQIFZ46hgpPehphhP+3Q1hfwUW5umoyIlR4Upcb14wKD+I5GXX+/1CPN+N6bQr2hXtvLkKu/M1vTtJBCwqkcSJ4VkU0+tcKpOdJ+1qkfQP7j1m7kwnwe7z6TIO4vPEUmayjjmAl5Z7OStZAfr+I5/kQFMnFuC5KxbLy8ifwXNNZZOZM8BpwoTcc+GSZZT2F/E1i20EfO0EnXQ/aCytjuwouX4MYsayeSPde5GNfqrzDbT38VsMfLY8HxpMvrWj0KlxpdTuFFfLOtR1Ed9cRXTGw56vwGHLh7btQDnaCG92ZOoXmhx7yeNGtdohaF3Ql8m3KS7K8psxKAYJ7X/i72nlLXCu/rmNoevSsaa0++TUDhApPHUOFJ3uyrUD5WY/6ymoLOdpXqPCkKDeuDV60HAQOllB+/gN1//VCknHSREMqBoVJx6A4CkHmE/V/MuRbwZZUIN6T8DwzLg4vBPXLxRbUUapDZ4ty7BLSa5RdWimQaaIlfoy4wr6p3hJyPgoPrRsbDoPSs1bWzfR84C4T65qx8buu9u9EN/dddc5XD7A78s+yk6wPbnfv6daKHrUDRXPbNUUrzU+7Q8WrssktybITo5E/TbP1HMiOOEKR4dXfef0slMJDQZWUhxbEHIW5jTfSTrqKUoJCG4IyVHgCyo1rQRSe0tLS7+JZ9EZdr+RzZDsMWdcXeUU9P1dWUXEpZ2l0leWMxlR4dBr1R0sQpdHoj5D+Usoqb58tJHVdpSTzFRSuUGQaaMeDdZED0FV+VnSpHa7WtOSr8JgDPXnl2pQVUHp2I74P3HfE+7XN+0gDzpR0ts8TXWKdRTfZU3SNXYk6+JO4cn9+u84aC2vcF8VbDT8EtAA4BoL5eLwRfonC4Egi3u6+wLcRlO98CIrdjbFLi3EwXTIoT82RzCuff2ll5WnlkchvMGjeiTKlnNb2EgLyIML8j66mQIQKT+py49oghYeKDuJ4moNFNs/raCbrRw+qD/wI7V5XYdaorq4+ljvjGE8mxaChZBpoO58Yhadt27anoB+1CGvbBaBEWW9QlR6InvLzGOiniquhpPAzT74KjznAk4t0eXDlDsS3SdaI9+WVOqUQhcIyZ7l401kh1simNbZ4FCDclp4fuBsI5TqQqswkBT/KvbC0Xbvv6mBJCBWe1OXGNW+FpywSubA8/VqRkAFU9WVZm6hE6KrMGWVlZWcjjl/jGVwcRDyXt4KUIv2sYmgb9wSFM+RaLPi5iAot08OLyVG6LT0VuHC2mz2+bjEvlJV8FZ7+4ACwHzgRXC/r1vW8J58AT9WphWgonneWik/kIRGP593pQmSHUOHJH2WWdRXKF8tQ7j2lqGMdJAk5KDzX6iBHBNDufq/KlabcuOal8JRcfPEJCLs63QDoSTd2NJH9kGVPVe8k3aCUPFHINT5eIA9NZYeHO89qQB4xcgBpHcK1Fgysq0ZgDfLAYyRUfvS9oHzXk88vs8Jj0L12uOjpStELikpDFJ5b9ZX2ZpZAgdoMpedd96BYJzs1611cLQXL3WdFDHW63R0T1mdxAWHRDp0o4yctdLKUR0ucY1k/gYDM5miJAcUSok0BCNnzUa60x3JQsJeXl/9GB0kC3oZLy8rLP0wVR/19yxoB70dGX6iuPpbbiFEuma7cbFNsWzpU1sCb/zmIY2OqARBtnXanbtLejzpw0TLqdnqq+tH3NxXrGBjIm6ZUeKjo7MbzXwLeUBaJnMcZWH6+1tEVFbTiXVJS8lWe/4b0/wLZcB/yswb52otyUxmTOq+BhN8cFB6ie6yTuCp2sN5WTb4Kj7E/w/8nQelZCSVqCxUfuaqZrD9pmaAxxkXOW+oss73yDVyPmAGyOQKdZxQ6knrr83cuUg88FEK/1kGS0A4CAx13cao4SC3MVp1fUvIlHazFA3VyAcqWUeFJV3dw+x7q5cl0wlq5WdbmMyori7KlurHBNVEo18os2ssiDGQ5H56pPqmkUHh0mnvB1eAqfT2qiP78Bur2AzV4+uqH1PW2saUoPJA/30c7eToLhSeJTNNP3F+JOhpTZlkdEG9b9tFc6oLtG/KwNcJeBIWKiv0D4A7mLyCtnIj6cRHvIJ1Ulugl20Lp2abOrGqIwmMsDfNKA3uPQulZhzi3gqvdB6D4FMQa61GFq+zzxApnm1J4XLlNSNlKu4QoMNBxeqATpV2Homd3JqIDp92VCD8dgoSYoaeDtziL26mA+mvwDA9wTHkk0kvVc0B40tQdhN0SCNMk+yMtDSjTZFAZ6/OW00sODtw5pIPkhHQKT8jMbGkKD4G2chHCb2U/KuRzZ54YH/PLK/K3AZwLhagf8vlHdYRJJDICv5eBtcZfuradKxkX42XZmHbJ+efn8dLYPf5l0TP2pDqCQVkhboDCY45W4JUHZi5242I94n0PXOneHyo+OeCG2H1ii5RK4bHlbig8VdolRAGBTjoaHSnlGgpSC453y9u2zThjicH/2+iMCzMJGy00XmnIosjmAgi7K1CW2lR1yPtw3wWFJ239wf07rLugQcBLVbeRyHoIWksHbVHgM+ezz9RGonVtZG62hvr8CBWehlHXW4tSeAwgh04uqZuV4ewMT+R/EtxLZYFpppN3ubLQcbHeTT6hPL2P+w9EIhEarfxvsECn5l8d6yl62664VjZc4TFnSHG2ZzRIxYczPrTU/KacKl4MFZ+06BqrEDPtDeIQ6osKjyMPQeEJd8EVCPxODUFwMzrX/kyDAd3RyTaBF+ngGcFOCaZdLEqazo3/H0WHbrCdlaYA8n0xhPMn6cpKN/hZAoUm47ET8NMaz+a1TEqPqjsKRMt6sSwSOVcHb9bQCsjjqk1lGCRYfrytP59NnaVCNgoP83G0M6heSF1vLVLhSQfOjkIG/gjx/xxy6lJc5yG9tC99xaIu6wbk4U7wL6WRSFmbNm0ayVzMNbVnQNF5Q50tVQiFh4dm8qRwXu8Fn4biswZxrwVfc2eL1+Lf0ymHMOi67rPixtqnxYda2alTeA5C4emqfTQ2uECUFjt5bWk8tlWrVp/FoHFiaUXF+ejcXBinFsZm07mVwItE1mNQz3lA5QJAxJFxtoJkXpgWyAV7C8EOnO2oqqr6HIQTj2doFvVPGyNcbIh8fRV12RX5fJeLvNPVpXbj9/Y/II6soGz9pDhnKIh6YOJOk5fxvPogrTN44C3z2lTks7POPZeL2K9Fvp4H9zGf2bQ7lhvhnjgnGv2WrpK8kE7h0Wm8gWf4c1odbtOu3TeZ3tFCDqpno9xcn4L6CJyd1PVWFIUH9f51tPGVaRSeWsiAK7T3huAYykAu0Eaal4BD8dyXsVxIY59Jz5t+U1CX2QZ3g5y9fRT9+BooQOe0rrMBlvUxNbnj2lh3cb2sFdUYbAuh8IwAR+r/x4FPQvF5A3Fz1udVZ5V4WV4sZsVTnI1xFGFM/DOipz1VPId6qaWiAzbBDA8E4GkYOCaiIXIlPxf0cVV/S6Ta/ZLtQGNowkAwTGngWpFj9IBnBw06qRiQZ+5YCCpfY1PVpyF+p6X2x63kl+v6yAWsuxsRj8y17poLc213qs3Vbb3vwfLXVUP+gMLzU8SbcoZH540Ll0fCbykGmdOPFpZHo+1wpYwLXLBM6nrbkIvCw5eCNtHoD/zpGbapM78wCjyYqm2odC3rPSgp5+los0Yr5BX95t8I/w7iOYj/1RoxxslrLu0xiCYOKmq6fmpRlu3gHvwvzf2GpkMyDl9c3K7OresPsx51kQuE6w59X1wXe1TcggH3JigohVB4uK5nlCZnfB5GvC/KuFiJNFbYMfGiO1I8f+jonPWpjp8gesWmiadRFwdBW7NO4dkFhSelDZNCgVulqVXrhnzU0XRkdN4l0Wi0YNbDUafHQwANRfzO0VK3egZhI8reoLVnnJ3D8xjLejtS604LdVe1kQaeXO4HnsF0vLyk3eJLsu0fbQyqB0Pjjvq7BdWYtfKpjuGpqPhYP9NAetMJop71mcNZQh1tVjj//PO/hL5yvw6fN5lH5t8oL7i3F/dWox0tAAejjf43FOSU68o4s4h6uwzteRzCPo/rB7iqhcwmzmzqIRV1WGlFo3/WSRYQN8gqcaPzluiPgfdmKCiFUHi4rmcMSKWHnAouQtwvaeXnBXejWO5cLZ6TJ+tcHNm4peYnoo/9pliMslPZ4ewOeVjh2QqFp+jrns6JRE5lQ2pIY2yJVAIiEvkQnbSaAktXR8FxKgQY0ugCobTWI0yOKLJcaD87y6LRjOdn5QoIzs5IY41OIzD9lkI+e70jbS3axL91EQsOfgpA/FOOhDprLLKe+HxQb/1QhTkdwKkVno/yrWs+J8iHefnIIbykZW1p2ZTR7OZCmh+ify2FHByNOLryM34xzD9YVVXfQzq/RTrXo35nIN1XcK0xi5SzyTuJcDna4ckV1zv/K25xd4iBGID7QzkplMLDT1z3kYhzAjgb5CLnl5AOP3s9J98Wy5w+Yn4zPqQ0X1S//znRt/Zm1J+tyksFhwuVa0AqPC4oQUfOhuJT9E9+JTyLJcX37COFLFt9x4pEXkSn6c71MroKGg20w4O0L0EepqLzHjKCp6XVvarPuoF7HwTXHfzmrotYNPCMI9TbXyqi0elId39zrzvmi/nTCs5H4GQ+++8UeDYnHTCItQLnt8Q21lhk3ZBoxxOgPOS1fkqt3bKsB1QdZ1nPqn1AJuH/V/GMztdR5Qy/wmPanZF3KNcayLrpuPZFHn+L/1tzvZkO3uQoKyv7ChhRW9wtazDyOR/XXUHKUPEVHoObav8s+js7xWAMxIVUeKjsTARpvJCcCj4EPgW+gLReBpfJbWKJPVYskUUXqkXHLbX/Ev2gQD6IcvE8Mio5B0CvwsPZHVseAv+oQxUVXLiIxvQ6yLfOt1o066x20qDak/g9AcKnN95afo9Ogpfekq/qIjcnHIO88e2nUg3mFRU9IJDG4PdMcFoz4kzU5zDksRv+/xXq9Mf8FKrL0CRo3779p5CPU1FnbaEE/RX56gmOZV7BoDIUmzP57PgM+SzxuxLkp/oGr8spAI7hJ4eyaPQfyNNI5hUMKsPRQrbnu9B+2uP/nK1ZB4IWtKPRXyPeGZA/byt55JNN4GtoGw/hd48StFsoKw22cFxaWnoa2twwlGUEy6N2PEGmwymnWarmCK6l5GaG0oqKKpStM+ptBvpYL+3cCBhg/0kMtHeJIRiUC63wTAHvB6n0kDNAKj8LwaVIj4t6+fnnCftd8YS8TTwpW4sxLxdxFXeBcLv8rugfmyH6OY6YiPy/K+NiP66fgPtAr8LDIyU4w+PI+eL9eE7fckOECBEiRIgQhcYA+xIxyN4i7sTgfDsUkkIrPNNAKjwzwVngA+CD4FxwAbgI6XKh7xPgAqdGzHcfFo84/yMePvQ9MVM22pRxIKo3nwAl5xwx2J4uBsRqxV3I43woObRAvRf8WF+DFB4qOzG5T8TjBV6NHiJEiBAhQoTIH0NiZeI2Z6kYhoF6OFhshYc7vOaAj4BUfh4D55NQKOYj/cfABeBc/J7jrBEPy3vEQ/H2YmYsImYdPEXcsbGwytBd8mvirliJGC7/JobaM1EX+5USOErn4T1wtyHu7QFTKTxqwbKUolb+HQpPi5+ODBEiRIgQIY48VMe/IO50+ooR7m412DeWwvMoaJQezvw8rsn/eX8eOAfKxkPI0xxwLvgoOM2uBT8QU6Gs3Q9FZbJ9r5hk3yUmxK4RE2M9xHhwrOYY+w4x2h4LzhSj7KVipL1BjEScoxHPSHAsOF2n+RrubwV3gtvA7eAOcBeYSeHh2p2Y7CXWyaJY+AwRIkSIECFCFBJDpQWFZ45SfKgUNLbC8wTI7e5c+Ewrz0vAZzSX6ns0gkh/XB9kFCPGb8hdY0yT5DoipkW/DPss+DIUmLXgRvBDcJMm/98MbgGzVXjU2h1pi4OyCPYFQoQIESJEiBDFRfWq48Rw+1fiHucNNQtCjoGy0NgKD7e7U9GhwrMcpMLyHBSQ50EaQKQdICownJ15HXwDfBNcBb4FrtF8W3MduB7k4mN+snof3ADmo/Bwzc4huVIckOW61kKECBEiRIgQLRZDtn5ejLL/JEbbb4pxrqt2K02AEtAcFJ4VIJWeV8BXQaP4GKVnNUjFhzM6hVJ4+BnLlq7YL4eJVfFmYxMhRIgQIUKECFEwxI8Rk2RE3Oc+LKbIj8R0DP5TwaNB4eEnLJ6V9YlcKPbK03WFhAgRIkSIECGOeEyRJ4rJTidwMZQdKR6GQjATPJIUHs7ofCJtKD5jxOZ4czSAFyJEiBAhQoRoVIz55KtimtNBzJCPQtnZr7abUwlqaQoPP19xRme7fAmKTqNYTQ4RIkSIECFCtFTcte6zYrb8hXjQ6QWF53EoPK54EooE7e3Q7s5jUC6aXOFBPraAH4EfujVQcqaJrfI3Ih5vUvP7IUKECBEiRIiWjOr4seJReSr4CzHfuVE85i6EwrNTKUJPgbTCvATkkRTkMhKKybNkDgrPaoR7C1wLrgPfAd/T3AhS0XnPfU18KK/G/5XizY+Ldup2iBAhQoQIESLEYVAZmhs/AUrOSeIp+VOx1PkHeL14xp0rljsvgFuVwsPDSdMpPFR0VrnrxEp3mVjtjhGrZXexVv4Sbv8hXkb8IUKECBEiRIhGhBD/HxIx1jgvl4muAAAAAElFTkSuQmCC;" parent="1" vertex="1">
          <mxGeometry x="462" y="-18.32" width="171.21" height="35.32" as="geometry" />
        </mxCell>
        <mxCell id="U9MWDXr_XhZEX7kHSUSE-11" value="&lt;font style=&quot;font-size: 32px;&quot;&gt;大搜AI化&lt;/font&gt;&lt;div style=&quot;font-size: 20px;&quot;&gt;&lt;font style=&quot;font-size: 20px;&quot;&gt;AIBox首条、问答等&lt;/font&gt;&lt;/div&gt;" style="rounded=1;whiteSpace=wrap;html=1;fillColor=#d5e8d4;strokeColor=#82b366;gradientColor=#97d077;" parent="1" vertex="1">
          <mxGeometry x="654" y="-34.5" width="190" height="79" as="geometry" />
        </mxCell>
        <mxCell id="U9MWDXr_XhZEX7kHSUSE-17" value="&lt;div&gt;&lt;br&gt;&lt;/div&gt;&lt;div&gt;&lt;br&gt;&lt;/div&gt;&lt;div&gt;&lt;br&gt;&lt;/div&gt;&lt;div&gt;&lt;br&gt;&lt;/div&gt;" style="rounded=1;whiteSpace=wrap;html=1;" parent="1" vertex="1">
          <mxGeometry x="59.55000000000001" y="-34.5" width="189" height="80" as="geometry" />
        </mxCell>
        <mxCell id="U9MWDXr_XhZEX7kHSUSE-12" value="&lt;font style=&quot;font-size: 32px;&quot;&gt;AIAgents&lt;/font&gt;&lt;div style=&quot;font-size: 20px;&quot;&gt;游记、教育、政务等&lt;/div&gt;" style="rounded=1;whiteSpace=wrap;html=1;fillColor=#fff2cc;strokeColor=#d6b656;gradientColor=#ffd966;" parent="1" vertex="1">
          <mxGeometry x="853" y="-34.5" width="196" height="79" as="geometry" />
        </mxCell>
        <mxCell id="U9MWDXr_XhZEX7kHSUSE-14" value="&lt;font style=&quot;font-size: 40px;&quot;&gt;&lt;b&gt;公司AI产品&lt;/b&gt;&lt;/font&gt;" style="text;html=1;align=left;verticalAlign=middle;whiteSpace=wrap;rounded=0;" parent="1" vertex="1">
          <mxGeometry x="55" y="-95.5" width="510" height="50" as="geometry" />
        </mxCell>
        <mxCell id="U9MWDXr_XhZEX7kHSUSE-10" value="" style="shape=image;verticalLabelPosition=bottom;labelBackgroundColor=default;verticalAlign=top;aspect=fixed;imageAspect=0;image=data:image/png,iVBORw0KGgoAAAANSUhEUgAAAnQAAACECAMAAAAuukbNAAABwlBMVEUAAAAAAAABAQEAAAAAAAAAAAAAAAABAQEAAAAAAAAAAAAAAAAAAAAREREQEBACAgIAAAAAAAAAAAAAAAAAAAAAAAAAAAAAAAABAQEAAAACAgICAgIAAAAAAAAAAAAAAAAAAAAAAAAAAAAAAAANDQ0EBAQAAAAAAAAAAAAAAAAAAAACAgIAAAAAAAAAAAAAAAAAAADhBBsAAAAAAAACAgIAAAABAQEAAAAAAAARERHhBRsAAAAAAAABAQECAgLfBRvhBRsAAAAAAADhBRwAAADiBhoCAgLfACAAAAAAAAAAAAAAAAAAAAABAQEAAAAAAADgBBoAAAABAQEAAAACAgLhBRsCAgLhBRsAAADhBBsAAAARERHhBRoAAADiBRsJCQkRERERERERERHiBxsAAAAAAAARERHhBBrgAxviBRvhBRvhBRsQEBDcABkRERHiBRvhBRvhBRvhBBsRERHiBRsREREQEBDhBBsRERHhBRsRERHhBRoRERHhBRsRERHhBBoQEBAPDw/jABURERERERESEhIRERHjBhoFBQURERHiCBoQEBDhBRsSEhLhAB7hBRoQEBDhBhsSEhIAAADhBRsRERFaUz5MAAAAk3RSTlMA9QeW4HxoFfnDH6wcabpZZP7tuOG/TmMP2RkLBfyb0rRGQo8oDYFT6nbKCeiFbf3weNbNazMS3MbDvqCNbz4vtKRgXLFXOgdKiVy8kypy8nQ2MCQi+S3046x5+eqpih3qeWIi6+WSRBjTw9+pDvKdNP3kiGjASz3XY87Ms6OBgFI0C+TckUQmuKAcmk45EJOOVCaEkGndAAAXnUlEQVR42uzbaVPTQBjA8aelQGxRpAK2pVBBSrUUqRQEBasg4sHhcIh4ooj3fet4H+M1jo4+zfeVdpM2qRt2k6ZQcH+vYIbJDJ1/upvsLgiCIAg8Ak2JJAjCymk/cwIRPTMgCCsk4sIM6ZgPBGEF9GzArFgFCEKxBfprUCvUAoJQTO3lDsw3PA2CUDTVtUghDYipnVAsZWhgMQiCUBQeNOIEQUgT0Qlrn4hOYBHRCWufiE5gEdEJa5+ITmAR0Qlrn4hOYBHRCWufiE5gEdEJa5+ITmD5X6MLTJQN9pe7wRaV7iVQqpzuNCcwBX0+XxhsUNU9MTGxfxzY7N81XMK7hxtqMc0xAoVzjmLajhEoSfMxTFucAYatDlwSCkChKhcxTZoCNvvPR5TuOYlJJNqgcENIbICSdByJzcAQt+sjiSBRDra5/AFYql2o4j4RdgBWUgsSHVC4ciRcUJKGkGDd9k4kymzLvANs8vPCyYcvuM685nhm2MntS928DzaoaqtoENGZjK51NljK0T0+l1ry8hnH6f5OJDhO+V+/92Dpqg/uXYdCOf2IO874uKNrE9H1NMURY80lG921GynF6cvAMlWHS2JbgeXI7lMp4tTuI1CYzZgW7+aNrrz0onu/8dGldz7gMvPm6pJHn61FF05WV2z3Y4Y0o42u8nzMmxbz941FVjW6LwdTOScv3AGWSK/UEQaW37dSObcOQ0F6MaNmmjO6ncBtV8jjthLd1JZQBLj9eSKn3X0DHAJ3ZaLafHTBimgnapRrogvWoYarZdWi+/nrQUrn3GNgcVYBy/2bKZ3CpnbHUTHOGV23qUcy76z56FociI2TwKn1oqy4DWwLsuKV6egCCdTzaKKbQJ3GCFDtcdPtR2LMTTcPfI6QyZzejWtQoOv3Uv96/R2s6kKiDxiakdgKnCpjuOTKjNnoejJPVF1O4LNXzloApo2yYpPp6EYxz4AmOj/qeQNA0YRWxSaBw48bKarTX4CBNZmjOfX2CFhSjYqjoOMcOu/3OrQkJCSH1pVQUzPQDWJGb8BcdK2Lpkaaz3LOp2ARo5vFPIvuXHStmGM89Z1F64aBQ8rIQSjA4ZSRQ2CJH4kE6EzWIr+6SupI0olEyGcmuvlaJOLA5bas8bSI0bWhXmIcctEdxXwh6gzFur71E91WVNSD1pSEZoTaaaNr9hob2vmjq+xChRd4hM/KGreLGN021JC2NeteDkcwX2eDvdHVrZvo2ufoX3QJNKccKI6hajjIG104iqoK4LEga531FS+6KBKLfeePHSVF5aILe67E5jJinUhM2Rvd9nUT3U76jG4ETboCNOdR1c8ZnXMUVceAyxNZZ6F40bkwI8FaBtuFRNLW6KSp9RKdz4tEFHS60axpoHDWoWqALzoPqgaBy7ys96R40XkxYwsrugjtPiYCkuXmKmC9RNdh8Og6gGYdpUcdQtUZnuiaUDUaBC6X5Dzzqx5dPXWWTDQP19F1IdG7hWa4bRzWS3QBh8GT0TASsVoN5Y8b/VrqFY4DVdUcqirY0XUg5h54+TyX81yyHF39aFTVi4SL/NrXYSk6W1ck1k1021HRAnobkJgBja+Y0Qta/YydZ+NxVHRGWNFNoMoVAD7v5XzPrUZXJaGxSRGd9ejoM4zR7L/uGdJFVwUaUdpzbhkjOkhKqJBalo9uqAYV3nHgdFVWfJRV7y1G14zLaBHR2RTdWO4+zn3u0R6j6HrVQk1FB5FOVJyYXC66+sZsnSPAKXgxO6pmF8OuiuhU+s0mJRGdW8pbYAl2ZYbBMSc9ujhmeExGB/sx9w1mHF1SoozDLE9lxdnKBfXHi0Fr0c0WObr6/kStMS8Sjh1G5qLbe6xFR5x7UQrR9SPROZv30u4MNbogEk3M6IxfEs+5jaKbiqOqG7jdzm0ZabjLWApjRRfcwRedw0/0JXXROcdCChctutYo2mAwbDU6so941aMbb8x7IxY4gcQANTo3Eh2mo4NBVPkr6dFNxxDNDzC+7BLYO4BvjKUwVnQQqUFDSRKdTkwX3S7MokTXE0dbJMIWoyNOf1/l6DxINE7nrR9I09ToRpCY4IyOvs4QDdOiC7goaxdsG7VD6kh2qA1biw6SdQZp1NQ5KdFhgza6seWi882hTTywrIeM6k6+/QDmPTtpdLlr1s52YVn+RLoNqNFVIzHEiI7xkriMFt1f8s78qZEiCsAvgZjhUDZZwNwhSLgCJgIJURYUjDEcATnEFUV0ly3vo9T1vq+yvPWV/6+6MP1mJt09PUknxeL3o2zJTvLtzOt3zVU0uZoAQrmT7g/4l++oFNZqcniAmxxuXrpZ1MaKvPPty2dctHu3mSLCzWf5R2JvXXpU0vedp8TiLCGa40lHWbSMunREjHVKGdlG6cZEjw85B3+b1G3FidsXTrpbqI0ltx7fzxt7LTWEdi+/qqEf+Qrd1xyVrwluyoQyyfVmpIM6+8pijdJVvSSFiS9Mfz45y+5SKeyCSbeP+lj0NM1wNjD4zqcufeYfPuXeAvzx8/zJC3VKp3jGZOS8aTOJlBEg6TjtZLlmpKOUyCDn8Zo9/1l4DDxAz9N74Q73USmsE9JFbQeJKxLpVig69DUJmhgqgb9lbuuROxP5j7/r6DP/xvHwfP0XcOPNF55uLe2XclREE2nzmuoi6aLszNaEdJQkDvBiulQzW1J+dTbRfUWlsDZKd3r1jNW6PU8X2Bw6I03SOcNlzqBfLqaWVGVnMaWhhhfM+5Hp0jeOYO/dJywukZ1ybj5iToLdBO9k0NG7GaAWJIF0iSRtH/EsHfWZLca5p9cCIiaHwRM/O3Mk/hepFKZBOn1dJhlqIHMyXMCuBCgQzJN07jxq3ueA8dOz3BFCmh5TGNx/6vyPPgTeiZhhfbJ4HnEZZu4pwpeOgv1UE9JRktjY5efpJugbVoUU+6GhEvv9xZQuBU5GDUQcyYECg01KR3zoDO1eofMBDe63STo6wZ9WNqfnbu1QVnQN+NLRR7ndvHSw5VsTVSQCvinwBD1Mv6XJDsrb3R3SnddhyhFwp7tp6YiPHaGd+bhkvP5n26QLo4B5EEo3Tt8DV7qOr5X4zLTnC2B8wkphd4V0BzNUFGq3dBTAiaGnrn7p9lFAqCqSjvK3hbGLIV2JlcAOgLHAwry7QbpglKXEOyEdHVXlvN0W6Q7FiUehdHR3nMu6SZe5x5UKnhG+554F4kHGsoWFQ6k8t3kmPpfVL92pZulo8M3Ybb90xIcUx/F5sh3S5XzIpRATS7ePjIqLdOuomWRNVgIb4Lad3NAsHUXym6qDOaOU78hz4uHEVXEv18pitAgOzv/4XAvSUZ63k9LJN2o8CGLpFpA4kks3idoQhzx/me68leM22N3WL136vCSQk0uXNVvGLNqszS8uLs51+fmtNwvgoGYgFnadAeDI4r8MFTVIR6FdB6WLTCOHaZBIN4REflQqnQ91U5GUwH4GG6xt/USbdInl63P71q6EECH5T1gCGdcQRUsmhw1Esq4pSDoBNx/rtHSQC3QjohHuTpcXkXJ2YuliebQw2d9Z6VKSEtivYOM9KoVpkm44iohb3ltFoiBjSnxxE8Z5tFNvg3TEYx2TjkhE/Hf0m6NahES6ZbRRTnROOm7auCqqeP1FP9Ai3d4me8Bn0BOzIGEjJLyLDyRpx0E7pXu209Jxov7uuEy6ebSzLpFuBzXTnRWXwF4SHjC+1iDdeCpviSoX0QPGCYipMbF8Uw/amU3So+eSSldll5gBiXQ1c8bBFCo0KpbuR93ONQY3/rfYQI5woc73LUlHkHSZEKqzDGKKPnQnOQGXU7pclBp6ZdKV8YypCbYxJyiULvjAiIR5XvjTJyZ1T5ZTAhPvcI2/RaUwzdLBQhJVGQcJaXTHGAYLvZdIui32tcfF0lE0sxOhpQAjzVUkcjzpwr3NlsC+Aic0oPOBLunIod2REKpQHpUn590xakCMpjHQQem+aat0NXaJRZBJ10Mr0hJlen40I90q8pj2eyyBSe5mVSqFaZPOd8h+dW15/BrD/EebThFb4xu9Co1lcnwZYMRWz6al2i4d9aG3UbrYJFLriFA6quskDwDgJEwL07xLt4x8tsALCzSQw+E7KoU1K901tDEjunFF6OTvgVjI1TnLL5wo0JOl3dLRxE3bpNukerNMuux12/jbBCvCxj1Lt5JEAQOgDjWT1KXbw254lY6eZlbyXRHQIZ36jvWdFWAkDDyj1n7piKd//60t0lF+ciYokY7+2Yf2HB/ZllfpemdQhG8PlPmLBnJ49FMprBnp9itoY34XQLN0ifUZlFCo8r6LqL9D0tHgjX7pdg2aIJFJt+fcBBCPUt7Ek3RxdojImzfZQfYNd5dAlfdoIIcHDeiceJcucs1AKztm6qM4+0Aj5tWXx20cbQ/HQE7cSRcdq+yWF/Nm6kCvdE9Q1V8U2mmXLtKNJJNYOtrvbLDwuJo3lYl4ku6YDoOsny4Sddu9KSuBjXF5iTLHXqVbOEUbxzHaNuSJ5HGpuTwChvcED+OdmCbp6OWcblsobmqWro89XEtS6Whkh7NMMeVFugCaDFmaOMd26H+mxsrfqnzkUbpMWlR4gQH0yiZ4oIsOLYfgIFigdked0tGb64jXX3cuGNMp3bJgW3DQLh2F/gVyk7YBYEZduoEQ+1xjFulgOEQtU1IoEafM116k8x+jk6kWpMPeZk4WM3XxdxWqapYOGgdz6I1MtGBMl3RFg3N/Obj/eBJ7/FbpSte5RfdRU5TBVa/D1oihjL1dfZz9YAMUyL2lLt33XqRLoUS6XfRMEeyMrd0vwGL7OufH9/io+UyvdM4RRHqRsHULha7Wpju3KppD7R1d2BoKs+QFScfi/LLgC0oqSjcWpvYL54xExVO5cULFNkoeq0tXkEmXCKNX6mCjamDL3A+E+rC1HBq2pr0UgtDu5mutDFtT2DqSqpS7k2ghZZFunengiDRKBSQUpOsdtAR0TunoVGtklEpg6nygLp0fGaE5Jh2jFkJvJCPOfp7WmfEDeF8rwUW6VuIJZ2j3TetrJfqTKKbbIl1I2Nq17Ek6mnvCxZJNOsd6Op+rdcHnvEj3hrp0wC52szjApCMy03l0JyQ8SDyAGhgGaGKBjvtOJucCHWdo9+7HT77f3AIdxah435SOiObAQWLOg3SlNCU+67wRxHqBmisUSmDqPJdVl87AO6RrACSdFf8SMiZHS5FIJJvNxuO5nN/vTyTOLqRMr1XSKp3yee0nWhUmH9z3uHLsmVZXhR2hjGGHdPy3TNfUP40YOZev8edeRw32uwYUS2CfPCzhRSqFeYvprq8BOKUjLNb5OH9Pf8CwdTvrl64KoLoUUT64r37HlJZodd3pZoIknSyXMaIq3UkUGduiYWvq3w4tSw8kbArMr3Q/vK0u3Txi4SgHPOnIHFk/+mG68UKJALbOCECT619/hyagBWMa1r9mwyjg9PhKiWI6aZrzwKcm3d4gZ5qbpOMEiesqJbCfFSO/E2XpipXZIIBcOjgKWRSIgJVtg27oC+L7ffP4uvwdfXkJLRjTsuh6Ism5pPmlhT2qSBCDQcH9MqkiXW0HGUN+sXQwhYxVPxCCEcMVxTPuS630001xfmQgI1q3LZBj+Cb4oW1QwpK5fl5IqZNvzKEQUZt0MEqTr/mZ+cq1hcwBEDbpovvCfO9QeHrORbrtPDJ6stJdJgGLnSW3F/Z/6xZBUClMr3RQnUTGDktn319Axi0KgT0XwuYu3GuaPvy0VemI/czGwERt5bA/AeLaa1e5fBSRZ/yk0pUqSJSzLgt0Zl1NpxLYe8p1i681SwcHaSSW7lxU71UkemKghP9Kz9ChSLpAenX0YkhHoR1XOn1Q7dWNB2TS7XZbnYsARzpRw254Ra5SXblC+71u6SDbh0T3CiS2fUhsJUCF+Pb1/wRtlI462henYhdCOnji7pEuMZ7kOCeTDsaRYazxZKD2TTd+oFKYRunozMAIdaWRKEyACpFAmBxzSkfL742+zP9Aulp5vqpJur00WpiOKO2nW8gjY13SnklpFfcjxwf6pYNqN3KZ3wcFgrNmBFgRSDdMd9JA7HJLF+tDxMmSDulK6wZa6IkAXzrZ4bCSBTsxlghR+CL+oFKYfukgsooctvwqn/I1H3WzCqTbRSJZqV1e6XLbO+bcdavSxY8KaGXJr7yJM7ODjPSBo+BLwrizR6UwjdIRGzvo4JaKHNVVA4kJgXS9aOP6eO+llC4SMFMB+WKr0m3MoJXQkZf1r8VbyDhd4ZfAbnh6vf8NndIRG2hntQRu5Nbm0ca+QDo/Osj/OJy4bNJVUzvI6GlRuiraCNe87Rzun0eGcQWIuvPeJYfeFdYO6YojaGemCnJKG8cFtDMizNOVOfXJ2YNLJF0xEEUb/takW0ArQ/1eF13H+5B7nHiPojQVTuhdYdqly1zFBkJLko8rvtyTRAfdVxJC6U4qec5v2CxeCuliG6uT6CAlu9MFMys5ILY4Pa1jSWQkx5vZrj6LxAON59GvQInbVArTKl3pwTnkYqSE96IKcpSTViT6A93YgK90t0s3NrGexgaM9ZxEukAS0dc3EHE2+2zwO4AWq82t9N8w6HNuzLz5QYkbVArTJ13w/h8N2eThrtrOnFv/tHdnvUkFURzAD/tVSBAURKBQkEVk0YgskYqBVGK1xQhIDKZxLS8aH2ziozFGjYmJS8YPLNXC5M7MZQYqWMz5PfWJEvIPzNw5Z47dLD8Gi+1y/yq9uqEL1K9GLpqIiG9n2nO6U+Nk+lIxF4Arfo7/MGiTqLYRmneORN1LuzPYM4YhqEk+pEdhaqEL2POFEgA0xQVK5nu26iXCqHiIzsVCEDh2ouPNZA3OXqNMxNvMl+p1eXeXvINVnbiOmA5TVK4OfdSwEgNrm/GpJxJJXVA9a/TvEr/S8zR6Rxhe0j2M8+U+vXiOXjOs5iU9ClMKXXePjDywpC38FO9goRYV1eZkIG5ld5q+6yf5SFHWdhJGkoPT1Zo7pO9ELwKrVTMJl7hitKpcWuOrjraIsbPFlJ0mBio2l+QYrGWY1pB+1XPmoNPgaBNzyr7fLxzjjsA+gKo39ChMFDr5J0P33f3LRGSzCwChDT6N0VTJoGzHl4bfzEVyQFu/2gWArJW2LbGSdloT1ACZr9/u/2RbV2XMLrU6YnaekzrxKviCpSU/e+2olrSWb7eOPKYpbNFtUL7QWWCqwo/56runxpd4Zj3G/dIpIuAbv+zOOuE5gcqRP3JbCTjUJBPeatU7vYu/v+1lCmrljfvqfVvpipZPgsyPFz+pFzdhJpuEc7kWCysd+J8jYrdgEbPB/BE3vy147ABlT/hf5OArOmmH8WjKrfxNwtJ260C17hCOi/lArdvxMLvvZ7XBQNbt89BQyhv31RdzHR8ZyZ1VWdrN3erTZjdStXRWtcqkJ05dAxYQOlbs7f7+9/2nDpjBmycfh8Phx3dA9d4OR/Y/Ae850bMZf8dXr5ZBr8X+OJvMMNFtrGf67E1tIn0w1s1HNx1ASRv3aXe+sWBkvDUq1hWXdrSpUZ1DIxPanUx/ptKmct5LOHdC84fuOLmt35rmkrrJYNQVWxcEOjWTcM6PWMJ0tFt35I37r+WLuezgLqGcPZC5cY1p31Z160/qTL5ULDR7PV3Wv61fFeba81/IWIFj5baXUHfvAVD+cSArWyUwEmie1iZ72DpM5+ZTtxeEv+fZe5BJW9lntAF57GA+rlTkfLMTlt4jpoVAzJHOf65ohKw9r1rSYZjdPc94ksDxEshUxzvR6g6TkT1CTOvXEzBd+fDh8VoBZIKDKNGJdmCZSicIJ3cK/pWd4t2RB5I3kAzA3G41nCO2LBw7yfhge7c2KAEnkQirJde/0cgnQEWvsPtg8qNdgGUK1jxEJBoH9N876benttruk7BcTmLEDAgdwNCh1YehQzIYOrT6MHRIBkOHVh+GDslg6NDqw9AhGQwdWn0YOiSDoUOrD0OHZDB0aPVZiIELYUBoMdxniIC2EQCEFiVrM4kaeRFaCFo9jFXDaJnYPomcHRBaPNoRpm3hYg4tA+19dfYAoeUJRop1QAghhNChX9t0cFrW27+0AAAAAElFTkSuQmCC;imageBackground=none;" parent="1" vertex="1">
          <mxGeometry x="69" y="-10.75" width="170.09" height="35.75" as="geometry" />
        </mxCell>
        <mxCell id="U9MWDXr_XhZEX7kHSUSE-18" value="&lt;div&gt;&lt;br&gt;&lt;/div&gt;&lt;div&gt;&lt;br&gt;&lt;/div&gt;&lt;div&gt;&lt;br&gt;&lt;/div&gt;&lt;div&gt;&lt;br&gt;&lt;/div&gt;" style="rounded=1;whiteSpace=wrap;html=1;fillColor=#cce5ff;strokeColor=#36393d;" parent="1" vertex="1">
          <mxGeometry x="257" y="-34.5" width="189" height="80" as="geometry" />
        </mxCell>
        <mxCell id="U9MWDXr_XhZEX7kHSUSE-16" value="" style="shape=image;verticalLabelPosition=bottom;labelBackgroundColor=default;verticalAlign=top;aspect=fixed;imageAspect=0;image=data:image/svg+xml,PHN2ZyB4bWxuczp4bGluaz0iaHR0cDovL3d3dy53My5vcmcvMTk5OS94bGluayIgeG1sbnM9Imh0dHA6Ly93d3cudzMub3JnLzIwMDAvc3ZnIiB2ZXJzaW9uPSIxLjEiIHZpZXdCb3g9IjAgMCAxMzIgMjgiIGhlaWdodD0iMjhweCIgd2lkdGg9IjEzMnB4Ij4mI3hhOyAgICA8dGl0bGU+5pm66ISRbG9nb0AxeDwvdGl0bGU+JiN4YTsgICAgPGRlZnM+JiN4YTsgICAgICAgIDxsaW5lYXJHcmFkaWVudCBpZD0ibGluZWFyR3JhZGllbnQtMSIgeTI9IjY3LjYwMzk1JSIgeDI9IjI5LjkxMjE1JSIgeTE9IjI5LjUzNjclIiB4MT0iNzMuMjIxNyUiPiYjeGE7ICAgICAgICAgICAgPHN0b3Agb2Zmc2V0PSIwLjAxODQ2NTglIiBzdG9wLWNvbG9yPSIjMTJCN0ZBIi8+JiN4YTsgICAgICAgICAgICA8c3RvcCBvZmZzZXQ9IjEwMCUiIHN0b3AtY29sb3I9IiMwRTZDRjIiLz4mI3hhOyAgICAgICAgPC9saW5lYXJHcmFkaWVudD4mI3hhOyAgICAgICAgPGxpbmVhckdyYWRpZW50IGlkPSJsaW5lYXJHcmFkaWVudC0yIiB5Mj0iNzkuNjM0NDYlIiB4Mj0iNTYuMTYxOTc4NCUiIHkxPSIyMC4yNTk2NTU1JSIgeDE9IjQzLjczMjE0ODQlIj4mI3hhOyAgICAgICAgICAgIDxzdG9wIG9mZnNldD0iMC4wNTczOTQyMiUiIHN0b3AtY29sb3I9IiMwMDhERkYiLz4mI3hhOyAgICAgICAgICAgIDxzdG9wIG9mZnNldD0iNjAlIiBzdG9wLWNvbG9yPSIjMDk5NkY4Ii8+JiN4YTsgICAgICAgICAgICA8c3RvcCBvZmZzZXQ9IjEwMCUiIHN0b3AtY29sb3I9IiMwMEQyRDciLz4mI3hhOyAgICAgICAgPC9saW5lYXJHcmFkaWVudD4mI3hhOyAgICA8L2RlZnM+JiN4YTsgICAgPGcgZmlsbC1ydWxlPSJldmVub2RkIiBmaWxsPSJub25lIiBzdHJva2Utd2lkdGg9IjEiIHN0cm9rZT0ibm9uZSIgaWQ9Iumhtemdoi0xIj4mI3hhOyAgICAgICAgPGcgdHJhbnNmb3JtPSJ0cmFuc2xhdGUoLTE2LjAwMDAwMCwgLTEwLjAwMDAwMCkiIGlkPSJINV/mmbrohJHlpIfku70iPiYjeGE7ICAgICAgICAgICAgPGcgdHJhbnNmb3JtPSJ0cmFuc2xhdGUoMTYuMDAwMDAwLCAxMC4wMDAwMDApIiBpZD0i5pm66ISRbG9nbyI+JiN4YTsgICAgICAgICAgICAgICAgPGcgaWQ9Iue8lue7hCI+JiN4YTsgICAgICAgICAgICAgICAgICAgIDxwYXRoIGZpbGw9InVybCgjbGluZWFyR3JhZGllbnQtMSkiIGlkPSLlvaLnirYiIGQ9Ik0yLjUzNTMyMzM4LDE5LjExMjQzNzggQzIuNTM1MzIzMzgsMTkuMTEyNDM3OCAyLjQzNzgxMDk1LDE5LjE5NjAxOTkgMi4zMTI0Mzc4MSwxOS4zMzUzMjM0IEMxLjU2MDE5OSwxNy43MDU0NzI2IDEuMTQyMjg4NTYsMTUuODk0NTI3NCAxLjE0MjI4ODU2LDEzLjk4NjA2OTcgQzEuMTQyMjg4NTYsMTAuMzUwMjQ4OCAyLjY2MDY5NjUyLDcuMDYyNjg2NTcgNS4wOTg1MDc0Niw0LjcyMjM4ODA2IEM2LjE5OTAwNDk4LDQuMDY3NjYxNjkgNy41MDg0NTc3MSwzLjUzODMwODQ2IDkuMDEyOTM1MzIsMy4zNzExNDQyOCBDMTMuODMyODM1OCwyLjgxMzkzMDM1IDE2LjkyNTM3MzEsNC42MjQ4NzU2MiAyMC41NjExOTQsOC4yMTg5MDU0NyBDMjEuMDQ4NzU2Miw4LjcwNjQ2NzY2IDIxLjg3MDY0NjgsOS4xOTQwMjk4NSAyMi4yMTg5MDU1LDkuMzMzMzMzMzMgQzIzLjgwNjk2NTIsOS44OTA1NDcyNiAyNC45MDc0NjI3LDkuMTk0MDI5ODUgMjUuMzgxMDk0NSw4Ljg0NTc3MTE0IEMyNS4zODEwOTQ1LDguODQ1NzcxMTQgMjUuNDc4NjA3LDguNzYyMTg5MDUgMjUuNjE3OTEwNCw4LjYyMjg4NTU3IEMyNi4zNzAxNDkzLDEwLjI1MjczNjMgMjYuNzg4MDU5NywxMi4wNjM2ODE2IDI2Ljc4ODA1OTcsMTMuOTcyMTM5MyBDMjYuNzg4MDU5NywxNy42MDc5NjAyIDI1LjI2OTY1MTcsMjAuODk1NTIyNCAyMi44MzE4NDA4LDIzLjIzNTgyMDkgQzIxLjczMTM0MzMsMjMuODkwNTQ3MyAyMC40MjE4OTA1LDI0LjQxOTkwMDUgMTguOTMxMzQzMywyNC41NzMxMzQzIEMxNC4xMTE0NDI4LDI1LjEzMDM0ODMgMTEuMDE4OTA1NSwyMy4zMTk0MDMgNy4zODMwODQ1OCwxOS43MjUzNzMxIEM2Ljg5NTUyMjM5LDE5LjIzNzgxMDkgNi4wNzM2MzE4NCwxOC43NTAyNDg4IDUuNzM5MzAzNDgsMTguNjEwOTQ1MyBDNC4xMDk0NTI3NCwxOC4wNjc2NjE3IDMuMDA4OTU1MjIsMTguNzY0MTc5MSAyLjUzNTMyMzM4LDE5LjExMjQzNzggWiBNMTUuODUyNzM2MywwLjE4MTA5NDUyNyBDMTUuNTYwMTk5LDAuMTM5MzAzNDgzIDE1LjI2NzY2MTcsMC4xMTE0NDI3ODYgMTQuOTc1MTI0NCwwLjA4MzU4MjA4OTYgTDE0Ljk3NTEyNDQsMC4wODM1ODIwODk2IEMxNC42NDA3OTYsMC4wNTU3MjEzOTMgMTQuMjkyNTM3MywwLjA0MTc5MTA0NDggMTMuOTQ0Mjc4NiwwLjA0MTc5MTA0NDggTDEzLjI2MTY5MTUsMC4wNDE3OTEwNDQ4IEMxMi4zNDIyODg2LDAuMDk3NTEyNDM3OCAxMS40MzY4MTU5LDAuMjM2ODE1OTIgMTAuNTczMTM0MywwLjQ0NTc3MTE0NCBDNC41MTM0MzI4NCwxLjk1MDI0ODc2IDAuMDEzOTMwMzQ4Myw3LjQyNDg3NTYyIDAuMDEzOTMwMzQ4MywxMy45NTgyMDkgQzAuMDEzOTMwMzQ4MywxNy4zMDE0OTI1IDEuMTg0MDc5NiwyMC4zNjYxNjkyIDMuMTQ4MjU4NzEsMjIuNzYyMTg5MSBDNS42ODM1ODIwOSwyNS45MjQzNzgxIDkuNTcwMTQ5MjUsMjcuOTAyNDg3NiAxMy45NDQyNzg2LDI3LjkwMjQ4NzYgTDE0LjYyNjg2NTcsMjcuOTAyNDg3NiBDMTcuNzc1MTI0NCwyNy43NzcxMTQ0IDIwLjYzMDg0NTgsMjYuNTY1MTc0MSAyMi44NzM2MzE4LDI0LjY0Mjc4NjEgQzI1LjkyNDM3ODEsMjIuMDkzNTMyMyAyNy44NzQ2MjY5LDE4LjI0ODc1NjIgMjcuODc0NjI2OSwxMy45NTgyMDkgQzI3Ljg3NDYyNjksMTAuMDE1OTIwNCAyNi4yMzA4NDU4LDYuNDQ5NzUxMjQgMjMuNTg0MDc5NiwzLjkxNDQyNzg2IEMyMS41MzYzMTg0LDEuOTIyMzg4MDYgMTguODQ3NzYxMiwwLjU4NTA3NDYyNyAxNS44NTI3MzYzLDAuMTgxMDk0NTI3IFogTTEzLjk0NDI3ODYsMC4wNTU3MjEzOTMgQzEzLjk4NjA2OTcsMC4wNTU3MjEzOTMgMTQuMDI3ODYwNywwLjA1NTcyMTM5MyAxNC4wNjk2NTE3LDAuMDU1NzIxMzkzIEwxMy44MTg5MDU1LDAuMDU1NzIxMzkzIEMxMy44NjA2OTY1LDAuMDU1NzIxMzkzIDEzLjkwMjQ4NzYsMC4wNTU3MjEzOTMgMTMuOTQ0Mjc4NiwwLjA1NTcyMTM5MyBaIi8+JiN4YTsgICAgICAgICAgICAgICAgICAgIDxwYXRoIGZpbGw9InVybCgjbGluZWFyR3JhZGllbnQtMikiIGlkPSLlvaLnirYiIGQ9Ik0xMS41NzYxMTk0LDcuMTYwMTk5IEMxMi42MzQ4MjU5LDcuMTYwMTk5IDEzLjQ5ODUwNzUsNy45OTYwMTk5IDEzLjU1NDIyODksOS4wNTQ3MjYzNyBDMTMuNjUxNzQxMywxMC42NTY3MTY0IDE0LjM2MjE4OTEsMTEuMjI3ODYwNyAxNS44Mzg4MDYsMTEuMTQ0Mjc4NiBDMTUuODgwNTk3LDExLjE0NDI3ODYgMTUuOTIyMzg4MSwxMS4xNDQyNzg2IDE1Ljk2NDE3OTEsMTEuMTQ0Mjc4NiBDMTYuOTgxMDk0NSwxMS4xNDQyNzg2IDE3LjgwMjk4NTEsMTEuOTY2MTY5MiAxNy44MDI5ODUxLDEyLjk5NzAxNDkgQzE3LjgwMjk4NTEsMTQuMDEzOTMwMyAxNi45ODEwOTQ1LDE0Ljg0OTc1MTIgMTUuOTY0MTc5MSwxNC44NDk3NTEyIEMxNS4wMDI5ODUxLDE0Ljg0OTc1MTIgMTQuMjA4OTU1MiwxNC4wOTc1MTI0IDE0LjEzOTMwMzUsMTMuMTM2MzE4NCBDMTQuMDEzOTMwMywxMS42NTk3MDE1IDEzLjM3MzEzNDMsMTEuMDMyODM1OCAxMS44MTI5MzUzLDExLjE0NDI3ODYgQzkuNjk1NTIyMzksMTEuNDY0Njc2NiA5LjA2ODY1NjcyLDEyLjA5MTU0MjMgOC43NjIxODkwNSwxNC4yNTA3NDYzIEM4LjYzNjgxNTkyLDE1LjIyNTg3MDYgNy44MTQ5MjUzNywxNS45OTIwMzk4IDYuNzk4MDA5OTUsMTUuOTkyMDM5OCBDNS43MTE0NDI3OSwxNS45OTIwMzk4IDQuODE5OTAwNSwxNS4xMDA0OTc1IDQuODE5OTAwNSwxNCBDNC44MTk5MDA1LDEyLjk4MzA4NDYgNS41NzIxMzkzLDEyLjE0NzI2MzcgNi41NDcyNjM2OCwxMi4wMjE4OTA1IEM4LjcwNjQ2NzY2LDExLjcxNTQyMjkgOS4zMTk0MDI5OSwxMS4wNzQ2MjY5IDkuNjM5ODAxLDguOTE1NDIyODkgQzkuNzUxMjQzNzgsNy45MTI0Mzc4MSAxMC41NzMxMzQzLDcuMTYwMTk5IDExLjU3NjExOTQsNy4xNjAxOTkgWiBNMTUuMTg0MDc5NiwxMC4yMTA5NDUzIEMxNS42NTc3MTE0LDEwLjIxMDk0NTMgMTYuMDMzODMwOCw5LjgyMDg5NTUyIDE2LjAzMzgzMDgsOS4zNDcyNjM2OCBDMTYuMDMzODMwOCw4Ljg3MzYzMTg0IDE1LjY1NzcxMTQsOC40ODM1ODIwOSAxNS4xODQwNzk2LDguNDgzNTgyMDkgQzE0LjcxMDQ0NzgsOC40ODM1ODIwOSAxNC4zMzQzMjg0LDguODczNjMxODQgMTQuMzM0MzI4NCw5LjM0NzI2MzY4IEMxNC4zMzQzMjg0LDkuODIwODk1NTIgMTQuNzEwNDQ3OCwxMC4yMTA5NDUzIDE1LjE4NDA3OTYsMTAuMjEwOTQ1MyBaIE0xNi4wODk1NTIyLDIwLjc5ODAxIEMxNS4wMzA4NDU4LDIwLjc5ODAxIDE0LjE2NzE2NDIsMTkuOTYyMTg5MSAxNC4xMTE0NDI4LDE4LjkwMzQ4MjYgQzE0LjAxMzkzMDMsMTcuMzAxNDkyNSAxMy4zMDM0ODI2LDE2LjczMDM0ODMgMTEuODI2ODY1NywxNi44MTM5MzAzIEMxMS43ODUwNzQ2LDE2LjgxMzkzMDMgMTEuNzQzMjgzNiwxNi44MTM5MzAzIDExLjcwMTQ5MjUsMTYuODEzOTMwMyBDMTAuNjg0NTc3MSwxNi44MTM5MzAzIDkuODYyNjg2NTcsMTUuOTkyMDM5OCA5Ljg2MjY4NjU3LDE0Ljk2MTE5NCBDOS44NjI2ODY1NywxMy45NDQyNzg2IDEwLjY4NDU3NzEsMTMuMTA4NDU3NyAxMS43MDE0OTI1LDEzLjEwODQ1NzcgQzEyLjY2MjY4NjYsMTMuMTA4NDU3NyAxMy40NTY3MTY0LDEzLjg2MDY5NjUgMTMuNTI2MzY4MiwxNC44MjE4OTA1IEMxMy42NTE3NDEzLDE2LjI5ODUwNzUgMTQuMjkyNTM3MywxNi45MjUzNzMxIDE1Ljg1MjczNjMsMTYuODEzOTMwMyBDMTcuOTcwMTQ5MywxNi40OTM1MzIzIDE4LjU5NzAxNDksMTUuODY2NjY2NyAxOC45MDM0ODI2LDEzLjcwNzQ2MjcgQzE5LjAyODg1NTcsMTIuNzMyMzM4MyAxOS44NTA3NDYzLDExLjk2NjE2OTIgMjAuODY3NjYxNywxMS45NjYxNjkyIEMyMS45NTQyMjg5LDExLjk2NjE2OTIgMjIuODQ1NzcxMSwxMi44NTc3MTE0IDIyLjg0NTc3MTEsMTMuOTU4MjA5IEMyMi44NDU3NzExLDE0Ljk3NTEyNDQgMjIuMDkzNTMyMywxNS44MTA5NDUzIDIxLjExODQwOCwxNS45MzYzMTg0IEMxOC45NTkyMDQsMTYuMjQyNzg2MSAxOC4zNDYyNjg3LDE2Ljg4MzU4MjEgMTguMDI1ODcwNiwxOS4wNDI3ODYxIEMxNy45MjgzNTgyLDIwLjA0NTc3MTEgMTcuMDkyNTM3MywyMC43OTgwMSAxNi4wODk1NTIyLDIwLjc5ODAxIFogTTEyLjQ4MTU5MiwxNy43NjExOTQgQzEyLjAwNzk2MDIsMTcuNzYxMTk0IDExLjYzMTg0MDgsMTguMTUxMjQzOCAxMS42MzE4NDA4LDE4LjYyNDg3NTYgQzExLjYzMTg0MDgsMTkuMDk4NTA3NSAxMi4wMDc5NjAyLDE5LjQ4ODU1NzIgMTIuNDgxNTkyLDE5LjQ4ODU1NzIgQzEyLjk1NTIyMzksMTkuNDg4NTU3MiAxMy4zMzEzNDMzLDE5LjA5ODUwNzUgMTMuMzMxMzQzMywxOC42MjQ4NzU2IEMxMy4zNDUyNzM2LDE4LjEzNzMxMzQgMTIuOTU1MjIzOSwxNy43NjExOTQgMTIuNDgxNTkyLDE3Ljc2MTE5NCBaIi8+JiN4YTsgICAgICAgICAgICAgICAgPC9nPiYjeGE7ICAgICAgICAgICAgICAgIDxnIGZpbGwtcnVsZT0ibm9uemVybyIgZmlsbD0iIzM3MzgzOCIgdHJhbnNmb3JtPSJ0cmFuc2xhdGUoMzAuNzg2MDcwLCA2LjI2ODY1NykiIGlkPSLnvJbnu4QiPiYjeGE7ICAgICAgICAgICAgICAgICAgICA8cGF0aCBpZD0i6Lev5b6EIiBkPSJNMTEuODgyNTg3MSwwLjc5NDAyOTg1MSBMMC4wNDE3OTEwNDQ4LDAuNzk0MDI5ODUxIEwwLjA0MTc5MTA0NDgsMS42NzE2NDE3OSBDMC4wNDE3OTEwNDQ4LDIuNDA5OTUwMjUgMC42MTI5MzUzMjMsMi45ODEwOTQ1MyAxLjM1MTI0Mzc4LDIuOTgxMDk0NTMgTDExLjg2ODY1NjcsMi45ODEwOTQ1MyBDMTMuNDg0NTc3MSwyLjk4MTA5NDUzIDE0LjgwNzk2MDIsNC4zMDQ0Nzc2MSAxNC44MDc5NjAyLDUuOTIwMzk4MDEgTDE0LjgwNzk2MDIsNi42MzA4NDU3NyBMMTQuODA3OTYwMiw2LjgxMTk0MDMgTDE0LjYyNjg2NTcsNi44MTE5NDAzIEwxLjUwNDQ3NzYxLDYuODExOTQwMyBMMS41MDQ0Nzc2MSw4Ljk3MTE0NDI4IEwxNC42MjY4NjU3LDguOTcxMTQ0MjggTDE0LjgwNzk2MDIsOC45NzExNDQyOCBMMTQuODA3OTYwMiw5LjE2NjE2OTE1IEwxNC44MDc5NjAyLDEwLjI2NjY2NjcgQzE0LjgwNzk2MDIsMTEuODgyNTg3MSAxMy40OTg1MDc1LDEzLjIwNTk3MDEgMTEuODY4NjU2NywxMy4yMDU5NzAxIEwxLjM1MTI0Mzc4LDEzLjIwNTk3MDEgQzAuNjEyOTM1MzIzLDEzLjIwNTk3MDEgMC4wNDE3OTEwNDQ4LDEzLjc5MTA0NDggMC4wNDE3OTEwNDQ4LDE0LjUxNTQyMjkgTDAuMDQxNzkxMDQ0OCwxNS4zNzkxMDQ1IEwxMS44NDA3OTYsMTUuMzc5MTA0NSBDMTMuMTA4NDU3NywxNS4zNzkxMDQ1IDE0LjIwODk1NTIsMTQuOTE5NDAzIDE1LjE4NDA3OTYsMTQuMTExNDQyOCBDMTYuNDA5OTUwMiwxMy4wOTQ1Mjc0IDE2Ljk5NTAyNDksMTEuNDY0Njc2NiAxNi45OTUwMjQ5LDEwLjMzNjMxODQgTDE2Ljk5NTAyNDksNS45MDY0Njc2NiBDMTYuOTgxMDk0NSwzLjI0NTc3MTE0IDE0LjY5NjUxNzQsMC43OTQwMjk4NTEgMTEuODgyNTg3MSwwLjc5NDAyOTg1MSBaIi8+JiN4YTsgICAgICAgICAgICAgICAgICAgIDxwYXRoIGlkPSLlvaLnirYiIGQ9Ik0zMS44MTY5MTU0LDYuNzk4MDA5OTUgTDIxLjE0NjI2ODcsNi43OTgwMDk5NSBMMjAuOTY1MTc0MSw2Ljc5ODAwOTk1IEwyMC45NjUxNzQxLDYuNjE2OTE1NDIgTDIwLjk2NTE3NDEsNS44Nzg2MDY5NyBDMjAuOTY1MTc0MSw0LjI2MjY4NjU3IDIyLjI3NDYyNjksMi45NjcxNjQxOCAyMy44NzY2MTY5LDIuOTY3MTY0MTggTDM0LjE0MzI4MzYsMi45NjcxNjQxOCBDMzQuODgxNTkyLDIuOTY3MTY0MTggMzUuNDUyNzM2MywyLjM5NjAxOTkgMzUuNDUyNzM2MywxLjY1NzcxMTQ0IEwzNS40NTI3MzYzLDAuNzkzOTY2NDgyIEwyMy44NzY2MTY5LDAuNzkzOTY2NDgyIEMyMS4wNjI2ODY2LDAuNzgwMDk5NTAyIDE4Ljc5MjAzOTgsMy4wNjQ2NzY2MiAxOC43OTIwMzk4LDUuODc4NjA2OTcgTDE4Ljc5MjAzOTgsMTAuMjUyNzM2MyBDMTguNzkyMDM5OCwxMy4wNjY2NjY3IDIxLjA2MjY4NjYsMTUuMzM3MzEzNCAyMy44NzY2MTY5LDE1LjMzNzMxMzQgTDMxLjc4OTA1NDcsMTUuMzM3MzEzNCBDMzMuODA4OTU1MiwxNS4zMzczMTM0IDM1LjQzODgwNiwxMy43MDc0NjI3IDM1LjQzODgwNiwxMS42ODc1NjIyIEwzNS40Mzg4MDYsMTAuNDMzODMwOCBDMzUuNDUyNzM2Myw4LjQyNzg2MDcgMzMuODIyODg1Niw2Ljc5ODAwOTk1IDMxLjgxNjkxNTQsNi43OTgwMDk5NSBaIE0zMy4yNzk2MDIsMTEuNzAxNDkyNSBDMzMuMjc5NjAyLDEyLjUyMzM4MzEgMzIuNjI0ODc1NiwxMy4xOTIwMzk4IDMxLjc4OTA1NDcsMTMuMTkyMDM5OCBMMjMuODc2NjE2OSwxMy4xOTIwMzk4IEMyMi4yNzQ2MjY5LDEzLjE5MjAzOTggMjAuOTY1MTc0MSwxMS44ODI1ODcxIDIwLjk2NTE3NDEsMTAuMjgwNTk3IEwyMC45NjUxNzQxLDkuMTY2MTY5MTUgTDIwLjk2NTE3NDEsOC45ODUwNzQ2MyBMMjEuMTYwMTk5LDguOTg1MDc0NjMgTDMxLjgwMjk4NTEsOC45ODUwNzQ2MyBDMzIuNjI0ODc1Niw4Ljk4NTA3NDYzIDMzLjI5MzUzMjMsOS42Mzk4MDEgMzMuMjkzNTMyMywxMC40NzU2MjE5IEwzMy4yOTM1MzIzLDExLjcwMTQ5MjUgTDMzLjI3OTYwMiwxMS43MDE0OTI1IFoiLz4mI3hhOyAgICAgICAgICAgICAgICAgICAgPHBhdGggaWQ9IuW9oueKtiIgZD0iTTQ4LjgzOTgwMSwwLjc5NDAyOTg1MSBMNDIuMzc2MTE5NCwwLjc5NDAyOTg1MSBDMzkuNTYyMTg5MSwwLjc5NDAyOTg1MSAzNy4yOTE1NDIzLDMuMDkyNTM3MzEgMzcuMjkxNTQyMyw1Ljg3ODYwNjk3IEwzNy4yOTE1NDIzLDEwLjI1MjczNjMgQzM3LjI5MTU0MjMsMTMuMDY2NjY2NyAzOS41OTAwNDk4LDE1LjMzNzMxMzQgNDIuMzc2MTE5NCwxNS4zMzczMTM0IEw0OC44Mzk4MDEsMTUuMzM3MzEzNCBDNTEuNjUzNzMxMywxNS4zMzczMTM0IDUzLjkyNDQ0MTEsMTMuMDM4ODA2IDUzLjkyNDQ0MTEsMTAuMjUyNzM2MyBMNTMuOTI0NDQxMSw1Ljg3ODYwNjk3IEM1My45MzgzMDg1LDMuMDY0Njc2NjIgNTEuNjM5ODAxLDAuNzk0MDI5ODUxIDQ4LjgzOTgwMSwwLjc5NDAyOTg1MSBaIE01MS43NjUxNzQxLDEwLjI2NjY2NjcgQzUxLjc2NTE3NDEsMTEuODY4NjU2NyA1MC40NTU3MjE0LDEzLjE3ODEwOTUgNDguODUzNzMxMywxMy4xNzgxMDk1IEw0Mi40MDM5ODAxLDEzLjE3ODEwOTUgQzQwLjgwMTk5LDEzLjE3ODEwOTUgMzkuNDkyNTM3MywxMS44Njg2NTY3IDM5LjQ5MjUzNzMsMTAuMjY2NjY2NyBMMzkuNDc4NjA3LDUuODkyNTM3MzEgQzM5LjQ3ODYwNyw0LjI5MDU0NzI2IDQwLjc4ODA1OTcsMi45ODEwOTQ1MyA0Mi4zOTAwNDk4LDIuOTgxMDk0NTMgTDQ4Ljg1MzczMTMsMi45ODEwOTQ1MyBDNTAuNDU1NzIxNCwyLjk4MTA5NDUzIDUxLjc2NTE3NDEsNC4yOTA1NDcyNiA1MS43NjUxNzQxLDUuODkyNTM3MzEgTDUxLjc2NTE3NDEsMTAuMjY2NjY2NyBMNTEuNzY1MTc0MSwxMC4yNjY2NjY3IFoiLz4mI3hhOyAgICAgICAgICAgICAgICAgICAgPHBhdGggaWQ9Iui3r+W+hCIgZD0iTTk5LjQ2MjY4NjYsMS4xNDIyODg1NiBMOTQuMTgzMDg0NiwxLjE0MjI4ODU2IEw5My43NjUxNzQxLDAuNDAzOTgwMSBDOTMuNjI1ODcwNiwwLjE4MTA5NDUyNyA5My4zODkwNTQ3LDAuMDQxNzkxMDQ0OCA5My4xMzgzMDg1LDAuMDQxNzkxMDQ0OCBMOTEuNDUyNzM2MywwLjA0MTc5MTA0NDggTDkyLjA3OTYwMiwxLjE0MjI4ODU2IEw4Ni43MTY0MTc5LDEuMTQyMjg4NTYgTDg2LjcxNjQxNzksMi4yNDI3ODYwNyBDODYuNzE2NDE3OSwyLjY0Njc2NjE3IDg3LjA1MDc0NjMsMi45ODEwOTQ1MyA4Ny40NTQ3MjY0LDIuOTgxMDk0NTMgTDEwMC4yMDA5OTUsMi45ODEwOTQ1MyBMMTAwLjIwMDk5NSwxLjg4MDU5NzAxIEMxMDAuMTg3MDY1LDEuNDc2NjE2OTIgOTkuODY2NjY2NywxLjE0MjI4ODU2IDk5LjQ2MjY4NjYsMS4xNDIyODg1NiBaIi8+JiN4YTsgICAgICAgICAgICAgICAgICAgIDxwYXRoIGlkPSLot6/lvoQiIGQ9Ik05Ny42Mzc4MTA5LDEyLjgxNTkyMDQgQzk3LjYzNzgxMDksMTMuMjE5OTAwNSA5Ny4zMDM0ODI2LDEzLjU1NDIyODkgOTYuODk5NTAyNSwxMy41NTQyMjg5IEw4OS45OTAwNDk4LDEzLjU1NDIyODkgQzg5LjU4NjA2OTcsMTMuNTU0MjI4OSA4OS4yNTE3NDEzLDEzLjIxOTkwMDUgODkuMjUxNzQxMywxMi44MTU5MjA0IEw4OS4yNTE3NDEzLDQuNDI5ODUwNzUgTDg3LjQyNjg2NTcsNC40Mjk4NTA3NSBMODcuNDI2ODY1NywxMy4xNjQxNzkxIEM4Ny40MjY4NjU3LDE0LjM3NjExOTQgODguNDAxOTksMTUuMzUxMjQzOCA4OS42MTM5MzAzLDE1LjM1MTI0MzggTDk3LjI2MTY5MTUsMTUuMzUxMjQzOCBDOTguNDczNjMxOCwxNS4zNTEyNDM4IDk5LjQ0ODc1NjIsMTQuMzc2MTE5NCA5OS40NDg3NTYyLDEzLjE2NDE3OTEgTDk5LjQ0ODc1NjIsNC40Mjk4NTA3NSBMOTcuNjIzODgwNiw0LjQyOTg1MDc1IEw5Ny42MjM4ODA2LDEyLjgxNTkyMDQgTDk3LjYzNzgxMDksMTIuODE1OTIwNCBaIi8+JiN4YTsgICAgICAgICAgICAgICAgICAgIDxwYXRoIGlkPSLlvaLnirYiIGQ9Ik03NS4wNTY3MTY0LDAuNzk0MDI5ODUxIEw2OS4yMTk5MDA1LDAuNzk0MDI5ODUxIEM2OC4wMDc5NjAyLDAuNzk0MDI5ODUxIDY3LjAzMjgzNTgsMS43NjkxNTQyMyA2Ny4wMzI4MzU4LDIuOTgxMDk0NTMgTDY3LjAzMjgzNTgsNS41MzAzNDgyNiBDNjcuMDMyODM1OCw2Ljc0MjI4ODU2IDY4LjAwNzk2MDIsNy43MTc0MTI5NCA2OS4yMTk5MDA1LDcuNzE3NDEyOTQgTDc1LjA1NjcxNjQsNy43MTc0MTI5NCBDNzYuMjY4NjU2Nyw3LjcxNzQxMjk0IDc3LjI0Mzc4MTEsNi43NDIyODg1NiA3Ny4yNDM3ODExLDUuNTMwMzQ4MjYgTDc3LjI0Mzc4MTEsMi45ODEwOTQ1MyBDNzcuMjQzNzgxMSwxLjc2OTE1NDIzIDc2LjI2ODY1NjcsMC43OTQwMjk4NTEgNzUuMDU2NzE2NCwwLjc5NDAyOTg1MSBaIE03NS40MTg5MDU1LDUuMTU0MjI4ODYgQzc1LjQxODkwNTUsNS41NTgyMDg5NiA3NS4wODQ1NzcxLDUuODkyNTM3MzEgNzQuNjgwNTk3LDUuODkyNTM3MzEgTDY5LjU4MjA4OTYsNS44OTI1MzczMSBDNjkuMTc4MTA5NSw1Ljg5MjUzNzMxIDY4Ljg0Mzc4MTEsNS41NTgyMDg5NiA2OC44NDM3ODExLDUuMTU0MjI4ODYgTDY4Ljg0Mzc4MTEsMy4zMjkzNTMyMyBDNjguODQzNzgxMSwyLjkyNTM3MzEzIDY5LjE3ODEwOTUsMi41OTEwNDQ3OCA2OS41ODIwODk2LDIuNTkxMDQ0NzggTDc0LjY4MDU5NywyLjU5MTA0NDc4IEM3NS4wODQ1NzcxLDIuNTkxMDQ0NzggNzUuNDE4OTA1NSwyLjkyNTM3MzEzIDc1LjQxODkwNTUsMy4zMjkzNTMyMyBMNzUuNDE4OTA1NSw1LjE1NDIyODg2IFoiLz4mI3hhOyAgICAgICAgICAgICAgICAgICAgPHBhdGggaWQ9IuW9oueKtiIgZD0iTTg0LjE2NzE2NDIsMC43ODAwOTk1MDIgTDgxLjI1NTcyMTQsMC43ODAwOTk1MDIgQzgwLjA0Mzc4MTEsMC43ODAwOTk1MDIgNzkuMDY4NjU2NywxLjc1NTIyMzg4IDc5LjA2ODY1NjcsMi45NjcxNjQxOCBMNzkuMDY4NjU2NywxNS4zNTEyNDM4IEw4MC4xNjkxNTQyLDE1LjM1MTI0MzggQzgwLjU3MzEzNDMsMTUuMzUxMjQzOCA4MC45MDc0NjI3LDE1LjAxNjkxNTQgODAuOTA3NDYyNywxNC42MTI5MzUzIEw4MC45MDc0NjI3LDExLjExNjQxNzkgTDg0LjU0MzI4MzYsMTEuMTE2NDE3OSBMODQuNTQzMjgzNiwxMi44MTU5MjA0IEM4NC41NDMyODM2LDEzLjIxOTkwMDUgODQuMjA4OTU1MiwxMy41NTQyMjg5IDgzLjgwNDk3NTEsMTMuNTU0MjI4OSBMODEuOTgwMDk5NSwxMy41NTQyMjg5IEw4MS45ODAwOTk1LDE0LjY1NDcyNjQgQzgxLjk4MDA5OTUsMTUuMDU4NzA2NSA4Mi4zMTQ0Mjc5LDE1LjM5MzAzNDggODIuNzE4NDA4LDE1LjM5MzAzNDggTDg0LjE2NzE2NDIsMTUuMzkzMDM0OCBDODUuMzc5MTA0NSwxNS4zOTMwMzQ4IDg2LjM1NDIyODksMTQuNDE3OTEwNCA4Ni4zNTQyMjg5LDEzLjIwNTk3MDEgTDg2LjM1NDIyODksMy4wMDg5NTUyMiBDODYuMzU0MjI4OSwxLjc2OTE1NDIzIDg1LjM3OTEwNDUsMC43ODAwOTk1MDIgODQuMTY3MTY0MiwwLjc4MDA5OTUwMiBaIE04MS42MTc5MTA0LDIuNjA0OTc1MTIgTDgzLjc5MTA0NDgsMi42MDQ5NzUxMiBDODQuMTk1MDI0OSwyLjYwNDk3NTEyIDg0LjUyOTM1MzIsMi45MzkzMDM0OCA4NC41MjkzNTMyLDMuMzQzMjgzNTggTDg0LjUyOTM1MzIsNS4wNTY3MTY0MiBMODAuODkzNTMyMyw1LjA1NjcxNjQyIEw4MC44OTM1MzIzLDMuMzQzMjgzNTggQzgwLjg5MzUzMjMsMi45MjUzNzMxMyA4MS4yMTM5MzAzLDIuNjA0OTc1MTIgODEuNjE3OTEwNCwyLjYwNDk3NTEyIFogTTgwLjg5MzUzMjMsOS4yOTE1NDIyOSBMODAuODkzNTMyMyw2Ljg1MzczMTM0IEw4NC41MjkzNTMyLDYuODUzNzMxMzQgTDg0LjUyOTM1MzIsOS4yOTE1NDIyOSBMODAuODkzNTMyMyw5LjI5MTU0MjI5IFoiLz4mI3hhOyAgICAgICAgICAgICAgICAgICAgPHBhdGggaWQ9IuW9oueKtiIgZD0iTTczLjk3MDE0OTMsOC40Mjc4NjA3IEw1OS4zOTkwMDUsOC40Mjc4NjA3IEM1OC4xODcwNjQ3LDguNDI3ODYwNyA1Ny4yMTE5NDAzLDkuNDAyOTg1MDcgNTcuMjExOTQwMywxMC42MTQ5MjU0IEw1Ny4yMTE5NDAzLDEzLjE2NDE3OTEgQzU3LjIxMTk0MDMsMTQuMzc2MTE5NCA1OC4xODcwNjQ3LDE1LjM1MTI0MzggNTkuMzk5MDA1LDE1LjM1MTI0MzggTDczLjk3MDE0OTMsMTUuMzUxMjQzOCBDNzUuMTgyMDg5NiwxNS4zNTEyNDM4IDc2LjE1NzIxMzksMTQuMzc2MTE5NCA3Ni4xNTcyMTM5LDEzLjE2NDE3OTEgTDc2LjE1NzIxMzksMTAuNjE0OTI1NCBDNzYuMTU3MjEzOSw5LjQxNjkxNTQyIDc1LjE2ODE1OTIsOC40Mjc4NjA3IDczLjk3MDE0OTMsOC40Mjc4NjA3IFogTTU5Ljc0NzI2MzcsMTAuMjY2NjY2NyBMNzMuNTgwMDk5NSwxMC4yNjY2NjY3IEM3My45ODQwNzk2LDEwLjI2NjY2NjcgNzQuMzE4NDA4LDEwLjYwMDk5NSA3NC4zMTg0MDgsMTEuMDA0OTc1MSBMNTkuMDIyODg1NiwxMS4wMDQ5NzUxIEM1OS4wMzY4MTU5LDEwLjU4NzA2NDcgNTkuMzU3MjEzOSwxMC4yNjY2NjY3IDU5Ljc0NzI2MzcsMTAuMjY2NjY2NyBaIE03My42MDc5NjAyLDEzLjUyNjM2ODIgTDU5Ljc2MTE5NCwxMy41MjYzNjgyIEM1OS4zNTcyMTM5LDEzLjUyNjM2ODIgNTkuMDIyODg1NiwxMy4yMDU5NzAxIDU5LjAyMjg4NTYsMTIuNzg4MDU5NyBMNzQuMzE4NDA4LDEyLjc4ODA1OTcgQzc0LjMxODQwOCwxMy4yMDU5NzAxIDczLjk5ODAxLDEzLjUyNjM2ODIgNzMuNjA3OTYwMiwxMy41MjYzNjgyIFoiLz4mI3hhOyAgICAgICAgICAgICAgICAgICAgPHBvbHlnb24gcG9pbnRzPSI5NS4wNDY3NjYyIDMuNjkxNTQyMjkgOTMuNDU4NzA2NSA2LjQ2MzY4MTU5IDkxLjg1NjcxNjQgMy42OTE1NDIyOSA4OS43NjcxNjQyIDMuNjkxNTQyMjkgOTIuNCA4LjI3NDYyNjg3IDkwLjAwMzk4MDEgMTIuNDM5ODAxIDkyLjA5MzUzMjMgMTIuNDM5ODAxIDkzLjQ1ODcwNjUgMTAuMDk5NTAyNSA5NC44MDk5NTAyIDEyLjQzOTgwMSA5Ni45MTM0MzI4IDEyLjQzOTgwMSA5NC41MDM0ODI2IDguMjc0NjI2ODcgOTcuMTUwMjQ4OCAzLjY5MTU0MjI5IiBpZD0i6Lev5b6EIi8+JiN4YTsgICAgICAgICAgICAgICAgICAgIDxwYXRoIGlkPSLot6/lvoQiIGQ9Ik01OC4zOTYwMTk5LDcuNzAzNDgyNTkgQzU4LjU5MTA0NDgsNy43MDM0ODI1OSA1OC43NzIxMzkzLDcuNjE5OTAwNSA1OC45MTE0NDI4LDcuNDk0NTI3MzYgTDYxLjIyMzg4MDYsNS4xODIwODk1NSBMNjMuMTA0NDc3Niw3LjA2MjY4NjU3IEM2My41MDg0NTc3LDcuNDY2NjY2NjcgNjQuMDY1NjcxNiw3LjcwMzQ4MjU5IDY0LjY1MDc0NjMsNy43MDM0ODI1OSBMNjUuNTk4MDEsNy43MDM0ODI1OSBDNjYuMDAxOTksNy43MDM0ODI1OSA2Ni4zMzYzMTg0LDcuMzY5MTU0MjMgNjYuMzM2MzE4NCw2Ljk2NTE3NDEzIEw2Ni4zMzYzMTg0LDUuODY0Njc2NjIgTDY0LjgxNzkxMDQsNS44NjQ2NzY2MiBDNjQuNjIyODg1Niw1Ljg2NDY3NjYyIDY0LjQ0MTc5MSw1Ljc4MTA5NDUzIDY0LjMwMjQ4NzYsNS42NTU3MjEzOSBMNjMuNzg3MDY0Nyw1LjE0MDI5ODUxIEw2Ni4zMzYzMTg0LDUuMTQwMjk4NTEgTDY2LjMzNjMxODQsNC4wMzk4MDEgQzY2LjMzNjMxODQsMy42MzU4MjA5IDY2LjAwMTk5LDMuMzAxNDkyNTQgNjUuNTk4MDEsMy4zMDE0OTI1NCBMNjIuMTI5MzUzMiwzLjMwMTQ5MjU0IEw2Mi4xMjkzNTMyLDIuNTc3MTE0NDMgTDY1Ljk2MDE5OSwyLjU3NzExNDQzIEw2NS45NjAxOTksMS40NzY2MTY5MiBDNjUuOTYwMTk5LDEuMDcyNjM2ODIgNjUuNjI1ODcwNiwwLjczODMwODQ1OCA2NS4yMjE4OTA1LDAuNzM4MzA4NDU4IEw1OS4yNTk3MDE1LDAuNzM4MzA4NDU4IEw1OS42Nzc2MTE5LDcuOTE4NDg2MjFlLTE1IEw1Ny41NzQxMjk0LDcuOTE4NDg2MjFlLTE1IEw1Ni43MzgzMDg1LDEuNDYyNjg2NTcgQzU2LjQ1OTcwMTUsMS45NTAyNDg3NiA1Ni44MDc5NjAyLDIuNTYzMTg0MDggNTcuMzY1MTc0MSwyLjU2MzE4NDA4IEw2MC4yOTA1NDczLDIuNTYzMTg0MDggTDYwLjI5MDU0NzMsMy4yODc1NjIxOSBMNTYuMDk3NTEyNCwzLjI4NzU2MjE5IEw1Ni4wOTc1MTI0LDQuMzg4MDU5NyBDNTYuMDk3NTEyNCw0Ljc5MjAzOTggNTYuNDMxODQwOCw1LjEyNjM2ODE2IDU2LjgzNTgyMDksNS4xMjYzNjgxNiBMNTguNjYwNjk2NSw1LjEyNjM2ODE2IEw1Ni4xMTE0NDI4LDcuNjc1NjIxODkgTDU4LjM5NjAxOTksNy42NzU2MjE4OSBMNTguMzk2MDE5OSw3LjcwMzQ4MjU5IFoiLz4mI3hhOyAgICAgICAgICAgICAgICA8L2c+JiN4YTsgICAgICAgICAgICA8L2c+JiN4YTsgICAgICAgIDwvZz4mI3hhOyAgICA8L2c+JiN4YTs8L3N2Zz4=;" parent="1" vertex="1">
          <mxGeometry x="267.72" y="-10.75" width="169.28" height="35.91" as="geometry" />
        </mxCell>
        <mxCell id="U9MWDXr_XhZEX7kHSUSE-19" value="&lt;span style=&quot;font-size: 32px;&quot;&gt;……&lt;/span&gt;" style="rounded=1;whiteSpace=wrap;html=1;fillColor=#cce5ff;strokeColor=#36393d;" parent="1" vertex="1">
          <mxGeometry x="1060" y="-34.5" width="98.5" height="79" as="geometry" />
        </mxCell>
      </root>
    </mxGraphModel>
  </diagram>
</mxfile>
